<?xml version="1.0" encoding="UTF-8"?>
<svg width="512.78" height="440.49" version="1.1" viewBox="0 0 135.67 116.55" xmlns="http://www.w3.org/2000/svg" xmlns:cc="http://creativecommons.org/ns#" xmlns:dc="http://purl.org/dc/elements/1.1/" xmlns:rdf="http://www.w3.org/1999/02/22-rdf-syntax-ns#" xmlns:xlink="http://www.w3.org/1999/xlink">
 <defs>
  <linearGradient id="linearGradient1316">
   <stop stop-color="#020303" offset="0"/>
   <stop stop-color="#1f1f1f" stop-opacity=".99608" offset=".61192"/>
   <stop stop-color="#363638" stop-opacity=".99608" offset=".67218"/>
   <stop stop-opacity=".99608" offset=".67316"/>
   <stop stop-opacity=".99608" offset=".6768"/>
   <stop stop-color="#e8eaf7" offset=".67763"/>
   <stop stop-color="#dfe0ed" offset=".79131"/>
   <stop stop-color="#d3d5e0" offset="1"/>
  </linearGradient>
  <radialGradient id="radialGradient1060" cx="84.308" cy="70.081" r="12.558" gradientTransform="translate(2.561e-5)" gradientUnits="userSpaceOnUse" xlink:href="#linearGradient1316"/>
  <radialGradient id="radialGradient1326" cx="84.308" cy="70.081" r="12.558" gradientTransform="translate(-36.793)" gradientUnits="userSpaceOnUse" xlink:href="#linearGradient1316"/>
  <filter id="filter8235" x="-.012006" y="-.011994" width="1.024" height="1.024" color-interpolation-filters="sRGB">
   <feGaussianBlur stdDeviation="0.11070601"/>
  </filter>
 </defs>
 <metadata>
  <rdf:RDF>
   <cc:Work rdf:about="">
    <dc:format>image/svg+xml</dc:format>
    <dc:type rdf:resource="http://purl.org/dc/dcmitype/StillImage"/>
    <dc:title/>
   </cc:Work>
  </rdf:RDF>
 </metadata>
 <g transform="translate(1.9107 -9.4731)">
  <g stroke="#000" stroke-width=".2">
   <path d="m56.852 77.419c3.1895-0.97612 17.337-0.26799 17.337-0.26799s2.0009 0.63153 3.7422 1.8206c8.9083 2.169 7.7595-0.02726 12.298 2.2092 9.842 4.9272 13.476 7.1756 17.016 23.303 1.2964 5.9056 4.1228 21.382 14.783 21.426 5.33 0.0224 12.564-1.6551 11.536-26.696-0.50492-12.29-0.96457-20.876-2.7419-46.005-0.2611-3.6916-5.6547-13.971-8.1387-16.172-5.7701-5.415-10.463-7.343-17.372-7.3662-27.005 0-51.181 0.21993-78.114 0.21993-8.0037 0-11.32 2.0652-15.824 6.0764-3.2073 2.8568-6.2589 5.6538-7.8197 9.1536s-2.4123 5.7955-2.7138 9.5946c-1.2138 15.294-1.4179 16.553-2.4882 42.645-0.92653 22.587 2.0473 28.558 11.727 28.558 9.6794 0 13.301-13.174 14.86-21.694 1.5588-8.5207 4.9435-14.057 6.0432-15.624 1.2937-1.8434 2.7465-3.3539 10.642-7.4195 9.037-4.6534 12.04-2.7857 15.23-3.7618z" fill="#dee0ed" fill-opacity=".99076"/>
   <path d="m57.095 78.103c-3.5827 2.9282-10.379 4.5617-15.382 3.1089 0 0-4.2271 2.9438-11.279 3.0937-8.8558 0.18829-14.282-2.3301-17.829-5.0628-3.5473-2.7328-9.0112-8.7324-10.638-14.618-1.6272-5.8861-1.4224-12.393-0.1713-15.876 1.2511-3.4829 4.4646-9.5456 6.9487-11.747 5.7701-5.415 10.47-8.1903 17.379-8.2135 27.005 0 52.151 0.0054 79.085 0.0054 8.0037 0 11.533 2.6951 16.036 6.7062 6.4146 5.7136 9.7522 13.033 9.7522 20.655 0 7.622-2.54 14.441-8.1645 20.066-5.6246 5.6246-13.243 8.0447-18.402 8.0447-5.1586 0-10.543-1.3095-11.846-1.8951-1.3029-0.58558-2.354-1.19-2.354-1.19-6.3694 2.4258-11.468 0.95154-15.422-2.9706z" fill="#dee0ed" fill-opacity=".9986"/>
   <path d="m30.824 31.975s-4.1806 0.03408-5.478 0.19398c-1.2974 0.1599-7.7725 0.94355-13.279 6.1041-5.5062 5.1605-8.7038 12.689-7.9222 20.368 0.78156 7.6784 4.7189 12.195 6.1607 13.874 1.4418 1.6785 7.0104 5.802 9.4764 6.4777 2.432 0.66638 5.0433 1.9269 11.502 1.4516 3.3072-0.24339 5.6746-1.3692 5.9114-1.4732 1.0711-0.47055-0.15032-1.6482-1.1593-4.0469-0.65718-1.5623 23.961-4.2658 23.803-3.098-0.14471 1.0697-0.36399 2.2871 0.01165 2.2871 0.61941 0 10.598 0.09117 12.154 0.09117 0.24926 0 0.20079-1.0535-0.0058-2.2668-0.21978-1.2907 27.439-6.1524 23.824 3.0602-0.83819 2.1356-2.0163 3.2373-1.7632 3.5623 0.79038 1.0147 6.7232 1.9258 7.5502 1.9791 1.9188 0.10504 6.0585-0.29296 8.2822-0.89003 2.6272-0.70539 4.912-1.6858 6.107-2.5858 2.2269-1.6771 5.1676-3.9018 6.4229-5.6169 1.2549-1.7147 1.8784-2.5639 1.8658-2.6423l0.4361-0.78973c0.10839-0.04176 1.7565-3.4336 2.0972-4.9163 0.34067-1.4827 1.0247-3.618 0.97113-6.5012-0.0536-2.8832-0.73397-7.9013-2.2029-10.389-1.4689-2.4874-2.3667-4.5375-5.0938-7.3521-2.7271-2.8146-4.6526-3.6128-7.2806-4.8507-2.6279-1.2379-6.7591-1.8326-7.5021-1.8681-0.74299-0.0355-3.5179-0.14294-3.5179-0.14294z" fill="none"/>
  </g>
  <g>
   <g stroke="#000" stroke-width=".2">
    <g>
     <circle cx="84.308" cy="70.081" r="12.458" fill="url(#radialGradient1060)" stop-color="#000000" style="font-variation-settings:normal;paint-order:markers fill stroke"/>
     <circle cx="47.515" cy="70.081" r="12.458" fill="url(#radialGradient1326)" stop-color="#000000" style="font-variation-settings:normal;paint-order:markers fill stroke"/>
     <path d="m24.041 37.237 6.5274-0.01074s0.75479-3.91e-4 1.4734 0.76429c0.75887 0.75712 0.82684 1.5301 0.82684 1.5301l0.01143 4.6104s-0.0052 0.17823 0.1294 0.30358c0.13461 0.12535 0.26266 0.11577 0.26266 0.11577l4.5128 0.02715s0.95856 0.09516 1.5924 0.72897c0.63382 0.63382 0.79866 1.6431 0.79866 1.6431v6.4378s0.10383 0.79894-0.71327 1.623c-0.89853 0.90622-1.6152 0.81909-1.6152 0.81909h-4.5434s-0.06225-0.06701-0.23523 0.10597c-0.17298 0.17298-0.17977 0.26203-0.17977 0.26203v4.3549s0.08569 0.829-0.68012 1.7585c-0.76581 0.9295-1.7474 0.87365-1.7474 0.87365h-6.4141s-0.83715 0.01603-1.6418-0.78866c-0.80468-0.80468-0.81814-1.5451-0.81814-1.5451v-4.5513s-0.02743-0.19404-0.10718-0.28366c-0.12312-0.13836-0.2979-0.1975-0.2979-0.1975l-4.4986 0.03393s-0.90384 0.02279-1.6592-0.73256c-0.75535-0.75535-0.79299-1.5974-0.79299-1.5974v-6.564s0.0194-0.73487 0.81717-1.5326c0.79776-0.79776 1.6866-0.88241 1.6866-0.88241h4.4776s0.1433-0.0088 0.23785-0.11549c0.12909-0.14571 0.14537-0.28276 0.14537-0.28276v-4.3805s0.01041-0.87882 0.80715-1.6755c0.79673-0.79673 1.6375-0.85199 1.6375-0.85199z" fill="#c0c2ce"/>
    </g>
    <circle cx="26.919" cy="73.521" r="4.0604" fill="#c0c2ce" stroke-linecap="square" style="paint-order:markers fill stroke"/>
    <path d="m24.839 38.672 4.8816-8e-3s0.56449-2.93e-4 1.1019 0.57159c0.56754 0.56623 0.61837 1.1443 0.61837 1.1443l0.0085 5.2827s-0.0039 0.13329 0.09678 0.22704c0.10067 0.09374 0.19644 0.08658 0.19644 0.08658l5.2937 0.0203s0.71688 0.07117 1.1909 0.54517c0.47401 0.47402 0.59729 1.2289 0.59729 1.2289v4.8147s0.07765 0.5975-0.53344 1.2138c-0.67198 0.67774-1.208 0.61257-1.208 0.61257h-5.3165s-0.04655-0.05012-0.17592 0.07925c-0.12937 0.12937-0.13444 0.19596-0.13444 0.19596v5.149s0.06408 0.61999-0.50864 1.3151c-0.57273 0.69514-1.3069 0.65338-1.3069 0.65338h-4.7969s-0.62608 0.01199-1.2279-0.58981c-0.6018-0.6018-0.61186-1.1555-0.61186-1.1555v-5.2959s-0.02051-0.14512-0.08015-0.21214c-0.09208-0.10347-0.22279-0.1477-0.22279-0.1477l-5.1599 0.02538s-0.67596 0.01704-1.2409-0.54786c-0.56486-0.56491-0.59301-1.1946-0.59301-1.1946v-4.909s0.01451-0.54959 0.61114-1.1462c0.59662-0.59662 1.2614-0.65993 1.2614-0.65993h5.1442s0.10717-0.0066 0.17788-0.08637c0.09654-0.10897 0.10872-0.21147 0.10872-0.21147v-5.1108s0.0078-0.65724 0.60364-1.2531c0.59585-0.59585 1.2246-0.63718 1.2246-0.63718z" fill="#101011"/>
   </g>
   <path d="m24.877 39.201c-0.95281 0.1627-1.5237 1.1636-1.3359 2.0828-0.03539 1.5453 0.07066 3.1114-0.05273 4.6438-0.37037 0.91727-1.5141 0.46709-2.2637 0.57227-1.2838 0.04753-2.5944-0.09554-3.8613 0.07227-0.84083 0.28778-1.3063 1.1783-1.127 2.0383 0.04023 1.4274-0.07979 2.8744 0.05859 4.2898 0.25922 0.89918 1.2582 1.1235 2.0734 0.99409 1.5127 0.02659 3.0539-0.08195 4.5496 0.02544 0.95106 0.38131 0.52202 1.5639 0.61523 2.3438 0.03778 1.3244-0.07479 2.6676 0.05469 3.9805 0.30638 0.84485 1.2342 1.1818 2.0676 1.0312 1.4186-0.02902 2.8487 0.05705 4.2605-0.04102 0.97293-0.30539 1.1153-1.4306 1.0117-2.2984 0.03211-1.4882-0.06371-2.9981 0.04687-4.473 0.29719-0.78878 1.198-0.56252 1.8594-0.58008 1.4811-0.02315 2.9717 0.04486 4.4473-0.03125 0.77234-0.26244 1.17-1.0859 1.0137-1.8656-0.0469-1.4659 0.09361-2.9583-0.06976-4.4078-0.21002-0.96453-1.2927-1.1677-2.1271-1.0561-1.536-0.03931-3.0903 0.05387-4.6156-0.06306-0.90591-0.38936-0.45586-1.539-0.56474-2.2969-0.04694-1.3176 0.08466-2.6606-0.07003-3.9629-0.28494-0.7399-1.0639-1.1736-1.8445-1.0047-1.3754 0.0022-2.7508 0.0045-4.1262 0.0067z" fill="#101011" filter="url(#filter8235)" stroke="#1f1f1f" stroke-width=".2"/>
   <g stroke="#000">
    <circle cx="27.219" cy="50.231" r="2.8519" fill="#161617" stop-color="#000000" stroke-width=".2" style="font-variation-settings:normal;paint-order:markers fill stroke"/>
    <g stroke-linecap="square">
     <path d="m75.661 45.011h-19.629c-0.02875-0.0011-0.05598 0-0.08268 0-2.5464 0.01982-4.6001 2.0793-4.6002 4.6132 5.29e-4 2.5336 2.0541 4.5928 4.6002 4.6126 0.03123 0.0011 0.06368 0 0.0925 0h19.798c2.5486-0.01675 4.6058-2.0827 4.6059-4.6173 9.6e-5 -2.5466-1.9965-4.4998-4.555-4.6074-0.08131-0.0024-0.16137-0.0013-0.22977-0.0011z" fill="#c0c2ce" stroke-width=".19952" style="paint-order:markers fill stroke"/>
     <path d="m56.471 46.014h19.204c0.02657-8.46e-4 0.05173 0 0.0764 0 2.6575 0.0122 3.7425 2.1187 3.6955 3.6093-0.02958 1.6011-1.2067 3.5436-3.6955 3.6089-0.02886 8.46e-4 -0.05884 0-0.08548 0h-19.36c-2.355-0.01311-3.8331-2.1814-3.8526-3.6305-0.07122-1.7455 1.3335-3.5989 3.8055-3.5868 0.07514-0.0019 0.14912-1e-3 0.21232-8.47e-4z" fill="#a2a2ac" stroke-width=".16964" style="paint-order:markers fill stroke"/>
     <path d="m57.323 47.085h17.479c0.02418-5.95e-4 0.4357 0 0.45816 0 2.2407 0 3.1099 1.5675 3.1099 2.5566-0.04149 1.474-1.2306 2.5209-3.3295 2.5209-0.02627 5.95e-4 -0.22257 0-0.24681 0h-17.85c-2.7769-0.05263-3.2603-1.5345-3.2779-2.5538-0.06482-1.2278 0.96174-2.5302 2.4927-2.523 0.06839-0.0013 1.1067-7.03e-4 1.1642-5.95e-4z" fill="#c0c2ce" stroke-width=".13574" style="paint-order:markers fill stroke"/>
    </g>
   </g>
  </g>
 </g>
 <g>
  <g transform="translate(1.9107 -9.4731)" gamepad-viewer-button="star-inactive">
   <circle class="snes-button" cx="26.889" cy="73.55" r="2.99" fill="#cdd3e3" stroke="#000" stroke-linecap="square" stroke-width=".2" style="paint-order:markers fill stroke" gpv-btn="star" ojd-button="ACTION"/>
   <circle class="snes-button" cx="26.889" cy="73.219" r="2.99" fill="#cdd3e3" stroke="#000" stroke-linecap="square" stroke-width=".2" style="paint-order:markers fill stroke" gpv-btn="star" ojd-button="ACTION"/>
   <path d="m26.942 70.963 0.52881 1.5948 1.6802 0.0101-1.3534 0.99576 0.50961 1.6011-1.3652-0.97943-1.3652 0.97943 0.50961-1.6011-1.3534-0.99576 1.6802-0.01009z" fill="#78787f" stop-color="#000000" style="font-variation-settings:normal;paint-order:markers fill stroke"/>
  </g>
  <g fill="#29292b" stroke="#000" stroke-linecap="square" stroke-width=".11562">
   <rect transform="translate(1.9107 -9.4731)" x="60.96" y="75.285" width="1.8342" height="1.8342" stop-color="#000000" style="font-variation-settings:normal;paint-order:markers fill stroke"/>
   <rect transform="translate(1.9107 -9.4731)" x="63.64" y="75.285" width="1.8342" height="1.8342" stop-color="#000000" style="font-variation-settings:normal;paint-order:markers fill stroke"/>
   <rect transform="translate(1.9107 -9.4731)" x="66.32" y="75.285" width="1.8342" height="1.8342" stop-color="#000000" style="font-variation-settings:normal;paint-order:markers fill stroke"/>
   <rect transform="translate(1.9107 -9.4731)" x="69" y="75.285" width="1.8342" height="1.8342" stop-color="#000000" style="font-variation-settings:normal;paint-order:markers fill stroke"/>
  </g>
  <g>
   <path transform="translate(1.9107 -9.4731)" d="m38.175 16.898c-0.95934-1.9363-2.1005-3.9404-3.8392-5.2235-1.7165-1.2667-3.9117-2.1015-6.0449-2.1015-2.1333 0-4.3285 0.83478-6.045 2.1015-1.7387 1.2831-2.9064 3.2744-3.8392 5.2235-0.98119 2.0502-2.8061 6.5914-1.7458 6.5914 0 0 4.1617-1.2613 11.541-1.2613h11.541c0.6366 0-0.74631-3.6706-1.5685-5.33z" fill="#dee0ed" fill-opacity=".9986" stop-color="#000000" stroke="#000" stroke-linecap="round" stroke-linejoin="round" stroke-width=".2" style="font-variation-settings:normal;paint-order:markers fill stroke" gamepad-viewer-button="l2-inactive" gpv-btn="l2"/>
   <path transform="translate(1.9107 -9.4731)" d="m93.619 16.898c0.95934-1.9363 2.1005-3.9404 3.8392-5.2235 1.7165-1.2667 3.9117-2.1015 6.0449-2.1015 2.1333 0 4.3285 0.83478 6.045 2.1015 1.7387 1.2831 2.8983 3.2782 3.8392 5.2235 0.9598 1.9845 2.8061 6.3785 1.7458 6.3785 0 0-6.9483-1.0485-11.541-1.0485h-11.541c-0.6366 0 0.74631-3.6706 1.5685-5.33z" fill="#dee0ed" fill-opacity=".9986" stop-color="#000000" stroke="#000" stroke-linecap="round" stroke-linejoin="round" stroke-width=".2" style="font-variation-settings:normal;paint-order:markers fill stroke" gamepad-viewer-button="r2-inactive" gpv-btn="r2"/>
   <text transform="translate(.93074 -10.144)" x="101.08566" y="21.454077" dominant-baseline="auto" fill="#78787f" font-family="sans-serif" font-size="4.5595px" stop-color="#000000" stroke-width=".11399" style="font-feature-settings:normal;font-variant-alternates:normal;font-variant-caps:normal;font-variant-east-asian:normal;font-variant-ligatures:normal;font-variant-numeric:normal;font-variant-position:normal;font-variation-settings:normal;inline-size:0;line-height:1.25;shape-margin:0;shape-padding:0;text-decoration-color:#000000;text-decoration-line:none;text-decoration-style:solid;text-indent:0;text-orientation:mixed;text-transform:none;white-space:normal" gpv-btn="labelr2" xml:space="preserve"><tspan x="101.08566" y="21.454077" dominant-baseline="auto" fill="#78787f" font-family="sans-serif" font-size="4.5595px" stop-color="#000000" stroke-width=".11399" style="font-feature-settings:normal;font-variant-alternates:normal;font-variant-caps:normal;font-variant-east-asian:normal;font-variant-ligatures:normal;font-variant-numeric:normal;font-variant-position:normal;font-variation-settings:normal;inline-size:0;line-height:1.25;shape-margin:0;shape-padding:0;text-decoration-color:#000000;text-decoration-line:none;text-decoration-style:solid;text-indent:0;text-orientation:mixed;text-transform:none;white-space:normal">R2</tspan></text>
   <text transform="translate(-74.076 -10.144)" x="101.08566" y="21.454077" dominant-baseline="auto" fill="#78787f" font-family="sans-serif" font-size="4.5595px" stop-color="#000000" stroke-width=".11399" style="font-feature-settings:normal;font-variant-alternates:normal;font-variant-caps:normal;font-variant-east-asian:normal;font-variant-ligatures:normal;font-variant-numeric:normal;font-variant-position:normal;font-variation-settings:normal;inline-size:0;line-height:1.25;shape-margin:0;shape-padding:0;text-decoration-color:#000000;text-decoration-line:none;text-decoration-style:solid;text-indent:0;text-orientation:mixed;text-transform:none;white-space:normal" gpv-btn="labell2" xml:space="preserve"><tspan x="101.08566" y="21.454077" dominant-baseline="auto" fill="#78787f" font-family="sans-serif" font-size="4.5595px" stop-color="#000000" stroke-width=".11399" style="font-feature-settings:normal;font-variant-alternates:normal;font-variant-caps:normal;font-variant-east-asian:normal;font-variant-ligatures:normal;font-variant-numeric:normal;font-variant-position:normal;font-variation-settings:normal;inline-size:0;line-height:1.25;shape-margin:0;shape-padding:0;text-decoration-color:#000000;text-decoration-line:none;text-decoration-style:solid;text-indent:0;text-orientation:mixed;text-transform:none;white-space:normal">L2</tspan></text>
  </g>
 </g>
 <g transform="translate(1.9107 -9.4731)" stroke="#000080">
  <g fill="#000080" font-family="sans-serif" stroke-width="0">
   <text x="56.118652" y="56.100304" font-size="1.8143px" stop-color="#000000" style="font-variation-settings:normal;line-height:1.25;paint-order:markers fill stroke" xml:space="preserve"><tspan x="56.118652" y="56.100304" fill="#000080" stop-color="#000000" stroke="#000080" stroke-width="0" style="font-variation-settings:normal;paint-order:markers fill stroke">- select</tspan></text>
   <text x="69.22612" y="56.100304" font-size="1.8143px" stop-color="#000000" style="font-variation-settings:normal;line-height:1.25;paint-order:markers fill stroke" xml:space="preserve"><tspan x="69.22612" y="56.100304" fill="#000080" stop-color="#000000" stroke="#000080" stroke-width="0" style="font-variation-settings:normal;paint-order:markers fill stroke">+ start</tspan></text>
   <text x="52.943649" y="41.378536" font-size="2.7517px" font-weight="bold" stop-color="#000000" style="font-variant-caps:normal;font-variant-east-asian:normal;font-variant-ligatures:normal;font-variant-numeric:normal;line-height:1.25;paint-order:markers fill stroke" xml:space="preserve"><tspan x="52.943649" y="41.378536" fill="#000080" font-family="sans-serif" font-size="2.7517px" font-weight="bold" stop-color="#000000" stroke="#000080" stroke-width="0" style="font-variant-caps:normal;font-variant-east-asian:normal;font-variant-ligatures:normal;font-variant-numeric:normal;paint-order:markers fill stroke">8BitDo</tspan></text>
  </g>
  <path d="m52.779 42.268h25.744" fill="none" stroke-width=".2"/>
  <g fill="#000080" font-family="sans-serif" stroke-width="0">
   <text x="64.396439" y="41.378536" font-size="2.6458px" stop-color="#000000" style="font-variant-caps:normal;font-variant-east-asian:normal;font-variant-ligatures:normal;font-variant-numeric:normal;line-height:1.25;paint-order:markers fill stroke" xml:space="preserve"><tspan x="64.396439" y="41.378536" fill="#000080" font-family="sans-serif" font-size="2.6458px" stop-color="#000000" stroke="#000080" stroke-width="0" style="font-variant-caps:normal;font-variant-east-asian:normal;font-variant-ligatures:normal;font-variant-numeric:normal;paint-order:markers fill stroke">SN30 pro+</tspan></text>
   <g font-size="3.2397px">
    <text transform="translate(3.839 -.17598)" x="91.662636" y="35.904472" dominant-baseline="auto" stop-color="#000000" style="font-feature-settings:normal;font-variant-alternates:normal;font-variant-caps:normal;font-variant-east-asian:normal;font-variant-ligatures:normal;font-variant-numeric:normal;font-variant-position:normal;font-variation-settings:normal;inline-size:0;line-height:1.25;paint-order:markers fill stroke;shape-margin:0;shape-padding:0;text-decoration-color:#000000;text-decoration-line:none;text-decoration-style:solid;text-indent:0;text-orientation:mixed;text-transform:none;white-space:normal" xml:space="preserve"><tspan x="91.662636" y="35.904472" dominant-baseline="auto" fill="#000080" font-family="sans-serif" font-size="3.2397px" stop-color="#000000" stroke="#000080" stroke-width="0" style="font-feature-settings:normal;font-variant-alternates:normal;font-variant-caps:normal;font-variant-east-asian:normal;font-variant-ligatures:normal;font-variant-numeric:normal;font-variant-position:normal;font-variation-settings:normal;inline-size:0;line-height:1.25;paint-order:markers fill stroke;shape-margin:0;shape-padding:0;text-decoration-color:#000000;text-decoration-line:none;text-decoration-style:solid;text-indent:0;text-orientation:mixed;text-transform:none;white-space:normal">X</tspan></text>
    <text transform="translate(-1.0937 1.5211)" x="84.727066" y="43.586182" dominant-baseline="auto" stop-color="#000000" style="font-feature-settings:normal;font-variant-alternates:normal;font-variant-caps:normal;font-variant-east-asian:normal;font-variant-ligatures:normal;font-variant-numeric:normal;font-variant-position:normal;font-variation-settings:normal;inline-size:0;line-height:1.25;paint-order:markers fill stroke;shape-margin:0;shape-padding:0;text-decoration-color:#000000;text-decoration-line:none;text-decoration-style:solid;text-indent:0;text-orientation:mixed;text-transform:none;white-space:normal" xml:space="preserve"><tspan x="84.727066" y="43.586182" dominant-baseline="auto" fill="#000080" font-family="sans-serif" font-size="3.2397px" stop-color="#000000" stroke="#000080" stroke-width="0" style="font-feature-settings:normal;font-variant-alternates:normal;font-variant-caps:normal;font-variant-east-asian:normal;font-variant-ligatures:normal;font-variant-numeric:normal;font-variant-position:normal;font-variation-settings:normal;inline-size:0;line-height:1.25;paint-order:markers fill stroke;shape-margin:0;shape-padding:0;text-decoration-color:#000000;text-decoration-line:none;text-decoration-style:solid;text-indent:0;text-orientation:mixed;text-transform:none;white-space:normal">Y</tspan></text>
    <text x="111.70261" y="65.877533" stop-color="#000000" style="font-variation-settings:normal;line-height:1.25;paint-order:markers fill stroke" xml:space="preserve"><tspan x="111.70261" y="65.877533" fill="#000080" stop-color="#000000" stroke="#000080" stroke-width="0" style="font-variation-settings:normal;paint-order:markers fill stroke">B</tspan></text>
    <text transform="translate(2.015 -1.9933)" x="121.89328" y="58.601936" dominant-baseline="auto" stop-color="#000000" style="font-feature-settings:normal;font-variant-alternates:normal;font-variant-caps:normal;font-variant-east-asian:normal;font-variant-ligatures:normal;font-variant-numeric:normal;font-variant-position:normal;font-variation-settings:normal;inline-size:0;line-height:1.25;paint-order:markers fill stroke;shape-margin:0;shape-padding:0;text-decoration-color:#000000;text-decoration-line:none;text-decoration-style:solid;text-indent:0;text-orientation:mixed;text-transform:none;white-space:normal" xml:space="preserve"><tspan x="121.89328" y="58.601936" dominant-baseline="auto" fill="#000080" font-family="sans-serif" font-size="3.2397px" stop-color="#000000" stroke="#000080" stroke-width="0" style="font-feature-settings:normal;font-variant-alternates:normal;font-variant-caps:normal;font-variant-east-asian:normal;font-variant-ligatures:normal;font-variant-numeric:normal;font-variant-position:normal;font-variation-settings:normal;inline-size:0;line-height:1.25;paint-order:markers fill stroke;shape-margin:0;shape-padding:0;text-decoration-color:#000000;text-decoration-line:none;text-decoration-style:solid;text-indent:0;text-orientation:mixed;text-transform:none;white-space:normal">A</tspan></text>
   </g>
  </g>
 </g>
</svg>
