<svg height="440.49" viewBox="0 0 135.67 116.55" width="512.78" xmlns="http://www.w3.org/2000/svg" xmlns:xlink="http://www.w3.org/1999/xlink"><linearGradient id="a"><stop offset="0" stop-color="#020303"/><stop offset=".61192" stop-color="#1f1f1f" stop-opacity=".99608"/><stop offset=".67218" stop-color="#363638" stop-opacity=".99608"/><stop offset=".67316" stop-opacity=".99608"/><stop offset=".6768" stop-opacity=".99608"/><stop offset=".67763" stop-color="#e8eaf7"/><stop offset=".79131" stop-color="#dfe0ed"/><stop offset="1" stop-color="#d3d5e0"/></linearGradient><radialGradient id="b" cx="84.308026" cy="70.081" gradientUnits="userSpaceOnUse" r="12.558" xlink:href="#a"/><radialGradient id="c" cx="47.515" cy="70.081" gradientUnits="userSpaceOnUse" r="12.558" xlink:href="#a"/><filter id="d" color-interpolation-filters="sRGB" height="1.024" width="1.024" x="-.012006" y="-.011994"><feGaussianBlur stdDeviation=".11070601"/></filter><g stroke="#000" stroke-width=".2" transform="translate(1.9107 -9.4731)"><path d="m56.852 77.419c3.1895-.97612 17.337-.26799 17.337-.26799s2.0009.63153 3.7422 1.8206c8.9083 2.169 7.7595-.02726 12.298 2.2092 9.842 4.9272 13.476 7.1756 17.016 23.303 1.2964 5.9056 4.1228 21.382 14.783 21.426 5.33.0224 12.564-1.6551 11.536-26.696-.50492-12.29-.96457-20.876-2.7419-46.005-.2611-3.6916-5.6547-13.971-8.1387-16.172-5.7701-5.415-10.463-7.343-17.372-7.3662-27.005 0-51.181.21993-78.114.21993-8.0037 0-11.32 2.0652-15.824 6.0764-3.2073 2.8568-6.2589 5.6538-7.8197 9.1536s-2.4123 5.7955-2.7138 9.5946c-1.2138 15.294-1.4179 16.553-2.4882 42.645-.92653 22.587 2.0473 28.558 11.727 28.558 9.6794 0 13.301-13.174 14.86-21.694 1.5588-8.5207 4.9435-14.057 6.0432-15.624 1.2937-1.8434 2.7465-3.3539 10.642-7.4195 9.037-4.6534 12.04-2.7857 15.23-3.7618z" fill="#dee0ed" fill-opacity=".99076"/><path d="m57.095 78.103c-3.5827 2.9282-10.379 4.5617-15.382 3.1089 0 0-4.2271 2.9438-11.279 3.0937-8.8558.18829-14.282-2.3301-17.829-5.0628-3.5473-2.7328-9.0112-8.7324-10.638-14.618-1.6272-5.8861-1.4224-12.393-.1713-15.876 1.2511-3.4829 4.4646-9.5456 6.9487-11.747 5.7701-5.415 10.47-8.1903 17.379-8.2135 27.005 0 52.151.0054 79.085.0054 8.0037 0 11.533 2.6951 16.036 6.7062 6.4146 5.7136 9.7522 13.033 9.7522 20.655s-2.54 14.441-8.1645 20.066c-5.6246 5.6246-13.243 8.0447-18.402 8.0447-5.1586 0-10.543-1.3095-11.846-1.8951-1.3029-.58558-2.354-1.19-2.354-1.19-6.3694 2.4258-11.468.95154-15.422-2.9706z" fill="#dee0ed" fill-opacity=".9986"/><path d="m30.824 31.975s-4.1806.03408-5.478.19398-7.7725.94355-13.279 6.1041c-5.5062 5.1605-8.7038 12.689-7.9222 20.368.78156 7.6784 4.7189 12.195 6.1607 13.874 1.4418 1.6785 7.0104 5.802 9.4764 6.4777 2.432.66638 5.0433 1.9269 11.502 1.4516 3.3072-.24339 5.6746-1.3692 5.9114-1.4732 1.0711-.47055-.15032-1.6482-1.1593-4.0469-.65718-1.5623 23.961-4.2658 23.803-3.098-.14471 1.0697-.36399 2.2871.01165 2.2871.61941 0 10.598.09117 12.154.09117.24926 0 .20079-1.0535-.0058-2.2668-.21978-1.2907 27.439-6.1524 23.824 3.0602-.83819 2.1356-2.0163 3.2373-1.7632 3.5623.79038 1.0147 6.7232 1.9258 7.5502 1.9791 1.9188.10504 6.0585-.29296 8.2822-.89003 2.6272-.70539 4.912-1.6858 6.107-2.5858 2.2269-1.6771 5.1676-3.9018 6.4229-5.6169 1.2549-1.7147 1.8784-2.5639 1.8658-2.6423l.4361-.78973c.10839-.04176 1.7565-3.4336 2.0972-4.9163.34067-1.4827 1.0247-3.618.97113-6.5012-.0536-2.8832-.73397-7.9013-2.2029-10.389-1.4689-2.4874-2.3667-4.5375-5.0938-7.3521s-4.6526-3.6128-7.2806-4.8507c-2.6279-1.2379-6.7591-1.8326-7.5021-1.8681-.74299-.0355-3.5179-.14294-3.5179-.14294z" fill="none"/></g><g transform="translate(1.9107 -9.4731)"><g stroke="#000" stroke-width=".2"><circle cx="84.308" cy="70.081" fill="url(#b)" r="12.458"/><circle cx="47.515" cy="70.081" fill="url(#c)" r="12.458"/><path d="m24.041 37.237 6.5274-.01074s.75479-.000391 1.4734.76429c.75887.75712.82684 1.5301.82684 1.5301l.01143 4.6104s-.0052.17823.1294.30358c.13461.12535.26266.11577.26266.11577l4.5128.02715s.95856.09516 1.5924.72897c.63382.63382.79866 1.6431.79866 1.6431v6.4378s.10383.79894-.71327 1.623c-.89853.90622-1.6152.81909-1.6152.81909h-4.5434s-.06225-.06701-.23523.10597-.17977.26203-.17977.26203v4.3549s.08569.829-.68012 1.7585-1.7474.87365-1.7474.87365h-6.4141s-.83715.01603-1.6418-.78866c-.80468-.80468-.81814-1.5451-.81814-1.5451v-4.5513s-.02743-.19404-.10718-.28366c-.12312-.13836-.2979-.1975-.2979-.1975l-4.4986.03393s-.90384.02279-1.6592-.73256c-.75535-.75535-.79299-1.5974-.79299-1.5974v-6.564s.0194-.73487.81717-1.5326c.79776-.79776 1.6866-.88241 1.6866-.88241h4.4776s.1433-.0088.23785-.11549c.12909-.14571.14537-.28276.14537-.28276v-4.3805s.01041-.87882.80715-1.6755c.79673-.79673 1.6375-.85199 1.6375-.85199z" fill="#c0c2ce"/><circle cx="26.919" cy="73.521" fill="#c0c2ce" r="4.0604" stroke-linecap="square"/><path d="m24.839 38.672 4.8816-.008s.56449-.000293 1.1019.57159c.56754.56623.61837 1.1443.61837 1.1443l.0085 5.2827s-.0039.13329.09678.22704c.10067.09374.19644.08658.19644.08658l5.2937.0203s.71688.07117 1.1909.54517c.47401.47402.59729 1.2289.59729 1.2289v4.8147s.07765.5975-.53344 1.2138c-.67198.67774-1.208.61257-1.208.61257h-5.3165s-.04655-.05012-.17592.07925-.13444.19596-.13444.19596v5.149s.06408.61999-.50864 1.3151c-.57273.69514-1.3069.65338-1.3069.65338h-4.7969s-.62608.01199-1.2279-.58981c-.6018-.6018-.61186-1.1555-.61186-1.1555v-5.2959s-.02051-.14512-.08015-.21214c-.09208-.10347-.22279-.1477-.22279-.1477l-5.1599.02538s-.67596.01704-1.2409-.54786c-.56486-.56491-.59301-1.1946-.59301-1.1946v-4.909s.01451-.54959.61114-1.1462c.59662-.59662 1.2614-.65993 1.2614-.65993h5.1442s.10717-.0066.17788-.08637c.09654-.10897.10872-.21147.10872-.21147v-5.1108s.0078-.65724.60364-1.2531c.59585-.59585 1.2246-.63718 1.2246-.63718z" fill="#101011"/></g><path d="m24.877 39.201c-.95281.1627-1.5237 1.1636-1.3359 2.0828-.03539 1.5453.07066 3.1114-.05273 4.6438-.37037.91727-1.5141.46709-2.2637.57227-1.2838.04753-2.5944-.09554-3.8613.07227-.84083.28778-1.3063 1.1783-1.127 2.0383.04023 1.4274-.07979 2.8744.05859 4.2898.25922.89918 1.2582 1.1235 2.0734.99409 1.5127.02659 3.0539-.08195 4.5496.02544.95106.38131.52202 1.5639.61523 2.3438.03778 1.3244-.07479 2.6676.05469 3.9805.30638.84485 1.2342 1.1818 2.0676 1.0312 1.4186-.02902 2.8487.05705 4.2605-.04102.97293-.30539 1.1153-1.4306 1.0117-2.2984.03211-1.4882-.06371-2.9981.04687-4.473.29719-.78878 1.198-.56252 1.8594-.58008 1.4811-.02315 2.9717.04486 4.4473-.03125.77234-.26244 1.17-1.0859 1.0137-1.8656-.0469-1.4659.09361-2.9583-.06976-4.4078-.21002-.96453-1.2927-1.1677-2.1271-1.0561-1.536-.03931-3.0903.05387-4.6156-.06306-.90591-.38936-.45586-1.539-.56474-2.2969-.04694-1.3176.08466-2.6606-.07003-3.9629-.28494-.7399-1.0639-1.1736-1.8445-1.0047-1.3754.0022-2.7508.0045-4.1262.0067z" fill="#101011" filter="url(#d)" stroke="#1f1f1f" stroke-width=".2"/><g stroke="#000"><circle cx="27.219" cy="50.231" fill="#161617" r="2.8519" stroke-width=".2"/><g stroke-linecap="square"><path d="m75.661 45.011h-19.629c-.02875-.0011-.05598 0-.08268 0-2.5464.01982-4.6001 2.0793-4.6002 4.6132.000529 2.5336 2.0541 4.5928 4.6002 4.6126.03123.0011.06368 0 .0925 0h19.798c2.5486-.01675 4.6058-2.0827 4.6059-4.6173.000096-2.5466-1.9965-4.4998-4.555-4.6074-.08131-.0024-.16137-.0013-.22977-.0011z" fill="#c0c2ce" stroke-width=".19952"/><path d="m56.471 46.014h19.204c.02657-.000846.05173 0 .0764 0 2.6575.0122 3.7425 2.1187 3.6955 3.6093-.02958 1.6011-1.2067 3.5436-3.6955 3.6089-.02886.000846-.05884 0-.08548 0h-19.36c-2.355-.01311-3.8331-2.1814-3.8526-3.6305-.07122-1.7455 1.3335-3.5989 3.8055-3.5868.07514-.0019.14912-.001.21232-.000847z" fill="#a2a2ac" stroke-width=".16964"/><path d="m57.323 47.085h17.479c.02418-.000595.4357 0 .45816 0 2.2407 0 3.1099 1.5675 3.1099 2.5566-.04149 1.474-1.2306 2.5209-3.3295 2.5209-.02627.000595-.22257 0-.24681 0h-17.85c-2.7769-.05263-3.2603-1.5345-3.2779-2.5538-.06482-1.2278.96174-2.5302 2.4927-2.523.06839-.0013 1.1067-.000703 1.1642-.000595z" fill="#c0c2ce" stroke-width=".13574"/></g></g></g><g transform="translate(1.9107 -9.4731)"><circle cx="26.889" cy="73.55" fill="#cdd3e3" r="2.99" stroke="#000" stroke-linecap="square" stroke-width=".2"/><circle cx="26.889" cy="73.219" fill="#cdd3e3" r="2.99" stroke="#000" stroke-linecap="square" stroke-width=".2"/><path d="m26.942 70.963.52881 1.5948 1.6802.0101-1.3534.99576.50961 1.6011-1.3652-.97943-1.3652.97943.50961-1.6011-1.3534-.99576 1.6802-.01009z" fill="#78787f"/></g><g stroke="#000"><g fill="#29292b" stroke-linecap="square" stroke-width=".11562"><path d="m62.8707 65.8119h1.8342v1.8342h-1.8342z"/><path d="m65.5507 65.8119h1.8342v1.8342h-1.8342z"/><path d="m68.2307 65.8119h1.8342v1.8342h-1.8342z"/><path d="m70.9107 65.8119h1.8342v1.8342h-1.8342z"/></g><path d="m38.175 16.898c-.95934-1.9363-2.1005-3.9404-3.8392-5.2235-1.7165-1.2667-3.9117-2.1015-6.0449-2.1015-2.1333 0-4.3285.83478-6.045 2.1015-1.7387 1.2831-2.9064 3.2744-3.8392 5.2235-.98119 2.0502-2.8061 6.5914-1.7458 6.5914 0 0 4.1617-1.2613 11.541-1.2613h11.541c.6366 0-.74631-3.6706-1.5685-5.33z" fill="#dee0ed" fill-opacity=".9986" stroke-linecap="round" stroke-linejoin="round" stroke-width=".2" transform="translate(1.9107 -9.4731)"/><path d="m93.619 16.898c.95934-1.9363 2.1005-3.9404 3.8392-5.2235 1.7165-1.2667 3.9117-2.1015 6.0449-2.1015 2.1333 0 4.3285.83478 6.045 2.1015 1.7387 1.2831 2.8983 3.2782 3.8392 5.2235.9598 1.9845 2.8061 6.3785 1.7458 6.3785 0 0-6.9483-1.0485-11.541-1.0485h-11.541c-.6366 0 .74631-3.6706 1.5685-5.33z" fill="#dee0ed" fill-opacity=".9986" stroke-linecap="round" stroke-linejoin="round" stroke-width=".2" transform="translate(1.9107 -9.4731)"/></g><text fill="#78787f" font-family="sans-serif" font-size="4.5595" stroke-width=".11399" transform="translate(.93074 -10.144)" x="101.08566" y="21.454077"><tspan fill="#78787f" font-family="sans-serif" font-size="4.5595" stroke-width=".11399" x="101.08566" y="21.454077">R2</tspan></text><text fill="#78787f" font-family="sans-serif" font-size="4.5595" stroke-width=".11399" transform="translate(-74.076 -10.144)" x="101.08566" y="21.454077"><tspan fill="#78787f" font-family="sans-serif" font-size="4.5595" stroke-width=".11399" x="101.08566" y="21.454077">L2</tspan></text><g stroke="#000080" transform="translate(1.9107 -9.4731)"><g fill="#000080" font-family="sans-serif" stroke-width="0"><text font-size="1.8143" x="56.118652" y="56.100304"><tspan fill="#000080" stroke="#000080" stroke-width="0" x="56.118652" y="56.100304">- select</tspan></text><text font-size="1.8143" x="69.22612" y="56.100304"><tspan fill="#000080" stroke="#000080" stroke-width="0" x="69.22612" y="56.100304">+ start</tspan></text><text font-size="2.7517" font-weight="bold" x="52.943649" y="41.378536"><tspan style="fill:#000080;font-family:sans-serif;font-size:2.7517;font-weight:bold;stroke:#000080;stroke-width:0" x="52.943649" y="41.378536">8BitDo</tspan></text></g><path d="m52.779 42.268h25.744" fill="none" stroke-width=".2"/><g fill="#000080" font-family="sans-serif" stroke-width="0"><text font-size="2.6458" x="64.396439" y="41.378536"><tspan fill="#000080" font-family="sans-serif" font-size="2.6458" stroke="#000080" stroke-width="0" x="64.396439" y="41.378536">SN30 pro+</tspan></text><g font-size="3.2397"><text transform="translate(3.839 -.17598)" x="91.662636" y="35.904472"><tspan fill="#000080" font-family="sans-serif" font-size="3.2397" stroke="#000080" stroke-width="0" x="91.662636" y="35.904472">X</tspan></text><text transform="translate(-1.0937 1.5211)" x="84.727066" y="43.586182"><tspan fill="#000080" font-family="sans-serif" font-size="3.2397" stroke="#000080" stroke-width="0" x="84.727066" y="43.586182">Y</tspan></text><text x="111.70261" y="65.877533"><tspan fill="#000080" stroke="#000080" stroke-width="0" x="111.70261" y="65.877533">B</tspan></text><text transform="translate(2.015 -1.9933)" x="121.89328" y="58.601936"><tspan fill="#000080" font-family="sans-serif" font-size="3.2397" stroke="#000080" stroke-width="0" x="121.89328" y="58.601936">A</tspan></text></g></g></g></svg>