<?xml version="1.0" encoding="UTF-8"?>
<svg width="512.78" height="440.49" version="1.1" viewBox="0 0 135.67 116.55" xmlns="http://www.w3.org/2000/svg" xmlns:cc="http://creativecommons.org/ns#" xmlns:dc="http://purl.org/dc/elements/1.1/" xmlns:rdf="http://www.w3.org/1999/02/22-rdf-syntax-ns#" xmlns:xlink="http://www.w3.org/1999/xlink">
 <metadata>
  <rdf:RDF>
   <cc:Work rdf:about="">
    <dc:format>image/svg+xml</dc:format>
    <dc:type rdf:resource="http://purl.org/dc/dcmitype/StillImage"/>
    <dc:title/>
   </cc:Work>
  </rdf:RDF>
 </metadata>
 <g fill="#f00">
  <path d="m58.763 67.946c3.1895-0.97612 17.337-0.26799 17.337-0.26799s2.0009 0.63153 3.7422 1.8206c8.9083 2.169 7.7595-0.02726 12.298 2.2092 9.842 4.9272 13.476 7.1756 17.016 23.303 1.2964 5.9056 4.1228 21.382 14.783 21.426 5.33 0.0224 12.564-1.6551 11.536-26.696-0.50492-12.29-0.96457-20.876-2.7419-46.005-0.2611-3.6916-5.6547-13.971-8.1387-16.172-5.7701-5.415-10.463-7.343-17.372-7.3662-27.005 0-51.181 0.21993-78.114 0.21993-8.0037 0-11.32 2.0652-15.824 6.0764-3.2073 2.8568-6.2589 5.6538-7.8197 9.1536s-2.4123 5.7955-2.7138 9.5946c-1.2138 15.294-1.4179 16.553-2.4882 42.645-0.92653 22.587 2.0473 28.558 11.727 28.558 9.6794 0 13.301-13.174 14.86-21.694 1.5588-8.5207 4.9435-14.057 6.0432-15.624 1.2937-1.8434 2.7465-3.3539 10.642-7.4195 9.037-4.6534 12.04-2.7857 15.23-3.7618z" fill-opacity=".99076"/>
  <path d="m59.005 68.63c-3.5827 2.9282-10.379 4.5617-15.382 3.1089 0 0-4.2271 2.9438-11.279 3.0937-8.8558 0.18829-14.282-2.3301-17.829-5.0628-3.5473-2.7328-9.0113-8.7324-10.638-14.618-1.6272-5.8861-1.4224-12.393-0.1713-15.876 1.2511-3.4829 4.4646-9.5456 6.9487-11.747 5.7701-5.415 10.47-8.1903 17.379-8.2135 27.005 0 52.151 0.0054 79.085 0.0054 8.0037 0 11.533 2.6951 16.036 6.7062 6.4146 5.7136 9.7522 13.033 9.7522 20.655 0 7.622-2.54 14.441-8.1645 20.066-5.6246 5.6246-13.243 8.0447-18.402 8.0447s-10.543-1.3095-11.846-1.8951-2.354-1.19-2.354-1.19c-6.3694 2.4258-11.468 0.95154-15.422-2.9706z" fill-opacity=".9986"/>
  <circle cx="86.219" cy="60.608" r="12.458" stop-color="#000000" style="font-variation-settings:normal;paint-order:markers fill stroke"/>
  <circle cx="49.426" cy="60.608" r="12.458" stop-color="#000000" style="font-variation-settings:normal;paint-order:markers fill stroke"/>
  <g fill-opacity=".9986">
   <path d="m91.453 13.436s13.501-0.1527 17.631 0 7.1461 1.0583 7.1461 1.0583c1.0285 0.07616 1.8616 0.83027 1.8616 1.8616v1.9294c0 1.0313-0.83308 1.9377-1.8616 1.8616 0 0-4.7592-1.1425-7.1461-1.2308-5.8731-0.21715-17.631 0-17.631 0-1.0313 0-1.8616-0.83026-1.8616-1.8616v-1.757c0-1.0313 0.83026-1.8616 1.8616-1.8616z" color="#000000" color-rendering="auto" dominant-baseline="auto" image-rendering="auto" shape-rendering="auto" solid-color="#000000" stop-color="#000000" style="font-feature-settings:normal;font-variant-alternates:normal;font-variant-caps:normal;font-variant-east-asian:normal;font-variant-ligatures:normal;font-variant-numeric:normal;font-variant-position:normal;font-variation-settings:normal;inline-size:0;isolation:auto;mix-blend-mode:normal;paint-order:markers fill stroke;shape-margin:0;shape-padding:0;text-decoration-color:#000000;text-decoration-line:none;text-decoration-style:solid;text-indent:0;text-orientation:mixed;text-transform:none;white-space:normal" gamepad-viewer-button="r1-inactive" gpv-btn="r1"/>
   <path d="m40.086 7.425c-0.95934-1.9363-2.1005-3.9404-3.8392-5.2235-1.7165-1.2667-3.9117-2.1015-6.0449-2.1015-2.1333 0-4.3285 0.83478-6.045 2.1015-1.7387 1.2831-2.9064 3.2744-3.8392 5.2235-0.98119 2.0502-2.8061 6.5914-1.7458 6.5914 0 0 4.1617-1.2613 11.541-1.2613h11.541c0.6366 0-0.74631-3.6706-1.5685-5.33z" stop-color="#000000" style="font-variation-settings:normal;paint-order:markers fill stroke" gamepad-viewer-button="l2-inactive" gpv-btn="l2"/>
   <path d="m44.163 13.436s-13.501-0.1527-17.631 0-7.1461 1.0583-7.1461 1.0583c-1.0285 0.07616-1.8616 0.83027-1.8616 1.8616v1.9294c0 1.0313 0.83308 1.9377 1.8616 1.8616 0 0 4.7592-1.1425 7.1461-1.2308 5.8731-0.21715 17.631 0 17.631 0 1.0313 0 1.8616-0.83026 1.8616-1.8616v-1.757c0-1.0313-0.83026-1.8616-1.8616-1.8616z" color="#000000" color-rendering="auto" dominant-baseline="auto" image-rendering="auto" shape-rendering="auto" solid-color="#000000" stop-color="#000000" style="font-feature-settings:normal;font-variant-alternates:normal;font-variant-caps:normal;font-variant-east-asian:normal;font-variant-ligatures:normal;font-variant-numeric:normal;font-variant-position:normal;font-variation-settings:normal;inline-size:0;isolation:auto;mix-blend-mode:normal;paint-order:markers fill stroke;shape-margin:0;shape-padding:0;text-decoration-color:#000000;text-decoration-line:none;text-decoration-style:solid;text-indent:0;text-orientation:mixed;text-transform:none;white-space:normal" gamepad-viewer-button="l1-inactive" gpv-btn="l1"/>
   <path d="m95.53 7.425c0.95933-1.9363 2.1005-3.9404 3.8392-5.2235 1.7165-1.2667 3.9117-2.1015 6.0449-2.1015 2.1333 0 4.3285 0.83478 6.045 2.1015 1.7387 1.2831 2.8983 3.2782 3.8392 5.2235 0.9598 1.9845 2.8061 6.3785 1.7458 6.3785 0 0-6.9483-1.0485-11.541-1.0485h-11.541c-0.6366 0 0.7463-3.6706 1.5685-5.33z" stop-color="#000000" style="font-variation-settings:normal;paint-order:markers fill stroke" gamepad-viewer-button="r2-inactive" gpv-btn="r2"/>
  </g>
 </g>
 <text x="31.786821" y="54.280807" fill="#000000" font-family="sans-serif" font-size="10.583px" stroke-width=".26458" style="line-height:1.25" xml:space="preserve"><tspan x="31.786821" y="54.280807" fill="#ffffff" stroke-width=".26458">Disconnected</tspan></text>
</svg>
