<svg height="3.865246mm" viewBox="0 0 10.523298 3.8652465" width="10.523297mm" xmlns="http://www.w3.org/2000/svg" xmlns:xlink="http://www.w3.org/1999/xlink"><radialGradient id="a" cx="72.406982" cy="45.206341" gradientTransform="matrix(.99665686 0 0 .10419388 .226259 43.730243)" gradientUnits="userSpaceOnUse" r="4.794824"><stop offset="0" stop-color="#494f5c"/><stop offset="1" stop-color="#414452"/></radialGradient><filter id="b" color-interpolation-filters="sRGB" height="1.218369" width="1.047302" x="-.023651" y="-.109185"><feGaussianBlur stdDeviation=".09199155"/></filter><g transform="translate(-54.219086 -47.703987)"><path d="m62.754876 47.804282-6.588462.0253c-.01134-.000435-.02209 0-.03261 0-1.004495.0078-1.814671.82027-1.814722 1.819817.00021.999467.810306 1.811795 1.814722 1.819614.01232.000434.02512 0 .03649 0l6.655121-.0253c1.005378-.0066 1.81691-.821605 1.816964-1.82145.000037-1.004577-.787591-1.775092-1.796858-1.817529-.03208-.000947-.06365-.000513-.09064-.000434z" stroke="#000" stroke-linecap="square" stroke-width=".2"/><g transform="translate(-12.992454)"><rect fill="#383d46" height="3.17215" ry="1.512204" width="9.890566" x="67.527901" y="48.048909"/><rect fill="#383d46" height="3.17215" ry="1.512204" width="9.890566" x="67.527901" y="47.776001"/><rect height="2.130221" ry=".925876" style="opacity:.95;stroke:#474a59;stroke-width:.062;stroke-linecap:square;fill:url(#a);filter:url(#b)" width="9.374884" x="67.765022" y="48.168648"/></g></g></svg>