<svg height="7.392942mm" viewBox="0 0 29.110473 7.3929433" width="29.110472mm" xmlns="http://www.w3.org/2000/svg" xmlns:xlink="http://www.w3.org/1999/xlink"><filter id="a" color-interpolation-filters="sRGB" height="1.089885" width="1.021393" x="-.010696" y="-.044942"><feGaussianBlur stdDeviation=".12702239"/></filter><g transform="translate(-87.375877 -22.536383)"><path d="m89.542308 22.909103s13.501432-.152705 17.631472 0 7.14613 1.058333 7.14613 1.058333c1.0285.07616 1.86158.830266 1.86158 1.861581v1.929392c0 1.031316-.83308 1.937741-1.86158 1.861581 0 0-4.75919-1.142495-7.14613-1.23075-5.87314-.217154-17.631472 0-17.631472 0-1.031316 0-1.861581-.830265-1.861581-1.861581v-1.756975c0-1.031315.830265-1.861581 1.861581-1.861581z" fill="#fff" filter="url(#a)"/><text fill="#78787f" font-family="sans-serif" font-size="4.55951" opacity=".6" stroke-width=".113988" transform="translate(-.896649 5.887101)" x="101.08566" y="21.454077"><tspan fill="#78787f" font-family="sans-serif" font-size="4.55951" stroke-width=".113988" x="101.08566" y="21.454077">R</tspan></text></g></svg>