<?xml version="1.0" encoding="UTF-8" standalone="no"?>
<svg
   xmlns:dc="http://purl.org/dc/elements/1.1/"
   xmlns:cc="http://creativecommons.org/ns#"
   xmlns:rdf="http://www.w3.org/1999/02/22-rdf-syntax-ns#"
   xmlns:svg="http://www.w3.org/2000/svg"
   xmlns="http://www.w3.org/2000/svg"
   xmlns:xlink="http://www.w3.org/1999/xlink"
   xmlns:sodipodi="http://sodipodi.sourceforge.net/DTD/sodipodi-0.dtd"
   xmlns:inkscape="http://www.inkscape.org/namespaces/inkscape"
   width="58.37516"
   height="59.283058"
   viewBox="0 0 15.445095 15.685309"
   version="1.1"
   id="svg8"
   sodipodi:docname="stick.svg"
   inkscape:version="1.0.2 (e86c870879, 2021-01-15)"
   inkscape:export-filename="/home/azzco/workdir/open-joystick-display/sn30/gamepadviwer/dcon.png"
   inkscape:export-xdpi="67.389999"
   inkscape:export-ydpi="67.389999">
  <defs
     id="defs2">
    <linearGradient
       inkscape:collect="always"
       id="linearGradient1316">
      <stop
         style="stop-color:#020303;stop-opacity:1"
         offset="0"
         id="stop1306" />
      <stop
         style="stop-color:#1f1f1f;stop-opacity:0.99607843"
         offset="0.61192185"
         id="stop1308" />
      <stop
         style="stop-color:#363638;stop-opacity:0.99607843;"
         offset="0.67218405"
         id="stop1318" />
      <stop
         style="stop-color:#000000;stop-opacity:0.99607843"
         offset="0.67316246"
         id="stop1322" />
      <stop
         style="stop-color:#000000;stop-opacity:0.99607843"
         offset="0.67680109"
         id="stop1320" />
      <stop
         style="stop-color:#e8eaf7;stop-opacity:1"
         offset="0.67763454"
         id="stop1310" />
      <stop
         style="stop-color:#dfe0ed;stop-opacity:1"
         offset="0.79131335"
         id="stop1312" />
      <stop
         style="stop-color:#d3d5e0;stop-opacity:1"
         offset="1"
         id="stop1314" />
    </linearGradient>
    <linearGradient
       inkscape:collect="always"
       id="linearGradient1270-3">
      <stop
         style="stop-color:#6d788a;stop-opacity:1"
         offset="0"
         id="stop1258" />
      <stop
         style="stop-color:#5f6878;stop-opacity:1"
         offset="0.58803916"
         id="stop1260" />
      <stop
         style="stop-color:#353942;stop-opacity:1"
         offset="0.68422931"
         id="stop1262" />
      <stop
         style="stop-color:#353942;stop-opacity:1"
         offset="0.69203782"
         id="stop1264" />
      <stop
         style="stop-color:#6f778a;stop-opacity:1"
         offset="0.71846157"
         id="stop1266" />
      <stop
         style="stop-color:#596270;stop-opacity:1"
         offset="1"
         id="stop1268" />
    </linearGradient>
    <linearGradient
       inkscape:collect="always"
       id="linearGradient1066">
      <stop
         style="stop-color:#dee0ed;stop-opacity:1;"
         offset="0"
         id="stop1062" />
      <stop
         style="stop-color:#000000;stop-opacity:0.99607843"
         offset="0.66642988"
         id="stop1072" />
      <stop
         style="stop-color:#e8eaf7;stop-opacity:1"
         offset="0.71929002"
         id="stop1068" />
      <stop
         style="stop-color:#dfe0ed;stop-opacity:1"
         offset="0.9289484"
         id="stop1070" />
      <stop
         style="stop-color:#d3d5e0;stop-opacity:1"
         offset="1"
         id="stop1064" />
    </linearGradient>
    <linearGradient
       inkscape:collect="always"
       id="linearGradient1017">
      <stop
         style="stop-color:#50575c;stop-opacity:1"
         offset="0"
         id="stop1013" />
      <stop
         style="stop-color:#4c5257;stop-opacity:1;"
         offset="0.58803916"
         id="stop1021" />
      <stop
         style="stop-color:#40454a;stop-opacity:1"
         offset="0.66374594"
         id="stop1023" />
      <stop
         style="stop-color:#41454a;stop-opacity:1"
         offset="0.69203782"
         id="stop1025" />
      <stop
         style="stop-color:#575e63;stop-opacity:1"
         offset="0.71846157"
         id="stop1027" />
      <stop
         style="stop-color:#4c5257;stop-opacity:1"
         offset="1"
         id="stop1015" />
    </linearGradient>
    <linearGradient
       inkscape:collect="always"
       id="linearGradient4047">
      <stop
         style="stop-color:#242629;stop-opacity:1"
         offset="0"
         id="stop4027" />
      <stop
         style="stop-color:#1c1f21;stop-opacity:1"
         offset="0.58095181"
         id="stop4029" />
      <stop
         style="stop-color:#131314;stop-opacity:1"
         offset="0.61701238"
         id="stop4033" />
      <stop
         style="stop-color:#1e1f21;stop-opacity:1"
         offset="0.72262424"
         id="stop4035" />
      <stop
         style="stop-color:#242629;stop-opacity:1"
         offset="0.78837478"
         id="stop4037" />
      <stop
         style="stop-color:#1c1e21;stop-opacity:1"
         offset="0.872136"
         id="stop4041" />
      <stop
         style="stop-color:#17181a;stop-opacity:1"
         offset="0.97327548"
         id="stop4043" />
      <stop
         style="stop-color:#45484a;stop-opacity:1"
         offset="1"
         id="stop4045" />
    </linearGradient>
    <inkscape:path-effect
       effect="fillet_chamfer"
       id="path-effect1261"
       is_visible="true"
       lpeversion="1"
       satellites_param="F,0,0,1,0,0.52916667,0,1 @ F,0,0,1,0,0.52916667,0,1 @ F,0,0,1,0,0.52916667,0,1"
       unit="px"
       method="auto"
       mode="F"
       radius="2"
       chamfer_steps="1"
       flexible="false"
       use_knot_distance="true"
       apply_no_radius="true"
       apply_with_radius="true"
       only_selected="false"
       hide_knots="false" />
    <inkscape:path-effect
       effect="fillet_chamfer"
       id="path-effect1257"
       is_visible="true"
       lpeversion="1"
       satellites_param="F,0,0,1,0,0.52916667,0,1 @ F,0,0,1,0,0.52916667,0,1 @ F,0,0,1,0,0.52916667,0,1"
       unit="px"
       method="auto"
       mode="F"
       radius="2"
       chamfer_steps="1"
       flexible="false"
       use_knot_distance="true"
       apply_no_radius="true"
       apply_with_radius="true"
       only_selected="false"
       hide_knots="false" />
    <inkscape:path-effect
       effect="fillet_chamfer"
       id="path-effect1253"
       is_visible="true"
       lpeversion="1"
       satellites_param="F,0,0,1,0,0.52916667,0,1 @ F,0,0,1,0,0.52916667,0,1 @ F,0,0,1,0,0.52916667,0,1"
       unit="px"
       method="auto"
       mode="F"
       radius="2"
       chamfer_steps="1"
       flexible="false"
       use_knot_distance="true"
       apply_no_radius="true"
       apply_with_radius="true"
       only_selected="false"
       hide_knots="false" />
    <inkscape:path-effect
       effect="fillet_chamfer"
       id="path-effect1248"
       is_visible="true"
       lpeversion="1"
       satellites_param="F,0,0,1,0,0.52916667,0,1 @ F,0,0,1,0,0.52916667,0,1 @ F,0,0,1,0,0.52916667,0,1"
       unit="px"
       method="auto"
       mode="F"
       radius="2"
       chamfer_steps="1"
       flexible="false"
       use_knot_distance="true"
       apply_no_radius="true"
       apply_with_radius="true"
       only_selected="false"
       hide_knots="false" />
    <radialGradient
       inkscape:collect="always"
       xlink:href="#linearGradient4047"
       id="radialGradient102882-2"
       gradientUnits="userSpaceOnUse"
       gradientTransform="matrix(3.7648651,0.00384344,-0.00385841,3.7795256,-145.15901,-229.01995)"
       cx="46.755703"
       cy="68.644951"
       fx="46.755703"
       fy="68.644951"
       r="8.0922384" />
    <radialGradient
       inkscape:collect="always"
       xlink:href="#linearGradient1270-3"
       id="radialGradient1057"
       gradientUnits="userSpaceOnUse"
       cx="84.307785"
       cy="70.080849"
       fx="84.307785"
       fy="70.080849"
       r="7.7225471"
       gradientTransform="translate(-36.792854)" />
    <radialGradient
       inkscape:collect="always"
       xlink:href="#linearGradient1316"
       id="radialGradient1060"
       cx="84.307785"
       cy="70.080849"
       fx="84.307785"
       fy="70.080849"
       r="12.557896"
       gradientUnits="userSpaceOnUse"
       gradientTransform="translate(2.5610077e-5)" />
    <radialGradient
       inkscape:collect="always"
       xlink:href="#linearGradient1066"
       id="radialGradient1060-7"
       cx="84.307785"
       cy="70.080849"
       fx="84.307785"
       fy="70.080849"
       r="12.557896"
       gradientUnits="userSpaceOnUse" />
    <radialGradient
       inkscape:collect="always"
       xlink:href="#linearGradient1017"
       id="radialGradient1019-7"
       cx="84.307785"
       cy="70.080849"
       fx="84.307785"
       fy="70.080849"
       r="7.7225471"
       gradientUnits="userSpaceOnUse" />
    <radialGradient
       inkscape:collect="always"
       xlink:href="#linearGradient1316"
       id="radialGradient1326"
       gradientUnits="userSpaceOnUse"
       gradientTransform="translate(-36.792829)"
       cx="84.307785"
       cy="70.080849"
       fx="84.307785"
       fy="70.080849"
       r="12.557896" />
    <filter
       height="1"
       width="1"
       y="0"
       x="0"
       style="color-interpolation-filters:sRGB"
       inkscape:label="Blur"
       id="filter2245">
      <feGaussianBlur
         stdDeviation="33.1072 31.3118"
         result="blur"
         id="feGaussianBlur2239" />
      <feColorMatrix
         values="1 0 0 0 0 0 1 0 0 0 0 0 1 0 0 0 0 0 50 0 "
         result="colormatrix"
         id="feColorMatrix2241" />
      <feComposite
         in="colormatrix"
         in2="SourceGraphic"
         operator="in"
         id="feComposite2243" />
    </filter>
    <filter
       height="1"
       width="1"
       y="0"
       x="0"
       style="color-interpolation-filters:sRGB"
       inkscape:label="Blur"
       id="filter2253">
      <feGaussianBlur
         stdDeviation="0.00018991403"
         result="blur"
         id="feGaussianBlur2247" />
      <feColorMatrix
         values="1 0 0 0 0 0 1 0 0 0 0 0 1 0 0 0 0 0 50 0 "
         result="colormatrix"
         id="feColorMatrix2249" />
      <feComposite
         in="colormatrix"
         in2="SourceGraphic"
         operator="in"
         id="feComposite2251"
         result="fbSourceGraphic" />
      <feColorMatrix
         result="fbSourceGraphicAlpha"
         in="fbSourceGraphic"
         values="0 0 0 -1 0 0 0 0 -1 0 0 0 0 -1 0 0 0 0 1 0"
         id="feColorMatrix2359" />
      <feGaussianBlur
         id="feGaussianBlur2361"
         stdDeviation="0.1 0.1"
         result="blur"
         in="fbSourceGraphic" />
      <feColorMatrix
         id="feColorMatrix2363"
         values="1 0 0 0 0 0 1 0 0 0 0 0 1 0 0 0 0 0 50 0 "
         result="colormatrix" />
      <feComposite
         in2="fbSourceGraphic"
         id="feComposite2365"
         in="colormatrix"
         operator="in" />
    </filter>
  </defs>
  <sodipodi:namedview
     id="base"
     pagecolor="#b9b9ff"
     bordercolor="#666666"
     borderopacity="1.0"
     inkscape:pageopacity="0"
     inkscape:pageshadow="2"
     inkscape:zoom="7.9999999"
     inkscape:cx="35.049846"
     inkscape:cy="45.477685"
     inkscape:document-units="mm"
     inkscape:current-layer="layer8"
     showgrid="true"
     guidetolerance="10000"
     inkscape:snap-perpendicular="true"
     inkscape:snap-tangential="true"
     inkscape:window-width="3440"
     inkscape:window-height="1370"
     inkscape:window-x="0"
     inkscape:window-y="0"
     inkscape:window-maximized="1"
     units="mm"
     inkscape:document-rotation="0"
     fit-margin-top="0"
     fit-margin-left="0"
     fit-margin-right="0"
     fit-margin-bottom="0" />
  <metadata
     id="metadata5">
    <rdf:RDF>
      <cc:Work
         rdf:about="">
        <dc:format>image/svg+xml</dc:format>
        <dc:type
           rdf:resource="http://purl.org/dc/dcmitype/StillImage" />
        <dc:title></dc:title>
      </cc:Work>
    </rdf:RDF>
  </metadata>
  <g
     inkscape:groupmode="layer"
     id="layer2"
     inkscape:label="Base"
     style="display:none;opacity:1"
     transform="translate(-39.792384,-62.358301)">
    <path
       style="display:inline;opacity:1;fill:#dee0ed;fill-opacity:0.990759;stroke:#000000;stroke-width:0.2;stroke-linecap:butt;stroke-linejoin:miter;stroke-miterlimit:4;stroke-dasharray:none;stroke-opacity:1"
       d="m 56.852139,77.418976 c 3.189546,-0.976117 17.336742,-0.267993 17.336742,-0.267993 0,0 2.000878,0.631531 3.742228,1.820589 8.908319,2.168959 7.759497,-0.02726 12.297545,2.209185 9.842026,4.927181 13.475536,7.175601 17.015736,23.302903 1.29638,5.90563 4.12276,21.38173 14.7827,21.42645 5.32997,0.0224 12.56449,-1.65506 11.53574,-26.695802 -0.50492,-12.29032 -0.96457,-20.876166 -2.74188,-46.004869 -0.2611,-3.691589 -5.65466,-13.970892 -8.13874,-16.172022 -5.77006,-5.415026 -10.46254,-7.342958 -17.37187,-7.366161 -27.00467,0 -51.180516,0.219926 -78.114454,0.219926 -8.00371,0 -11.32033,2.065235 -15.82367,6.07639 -3.20732,2.856777 -6.25891,5.653822 -7.81974,9.153633 -1.56083,3.499811 -2.4123,5.795527 -2.71380997,9.594566 -1.21381,15.294315 -1.41791,16.553177 -2.48822003,42.645094 -0.92653,22.586985 2.04732003,28.557945 11.72671,28.557945 9.67939,0 13.30114,-13.17371 14.85994,-21.69445 1.5588,-8.520741 4.94349,-14.057071 6.04323,-15.624149 1.293657,-1.843426 2.74654,-3.353937 10.641859,-7.419454 9.037034,-4.653418 12.040408,-2.785664 15.229954,-3.761781 z"
       id="path1059"
       sodipodi:nodetypes="zcccssssccssssszzssz" />
    <path
       style="display:inline;opacity:1;fill:#dee0ed;fill-opacity:0.998605;stroke:#000000;stroke-width:0.2;stroke-linecap:butt;stroke-linejoin:miter;stroke-miterlimit:4;stroke-dasharray:none;stroke-opacity:1"
       d="m 57.094607,78.103267 c -3.582729,2.928207 -10.37891,4.56173 -15.38193,3.108938 0,0 -4.227147,2.943764 -11.27878,3.093696 -8.85582,0.188293 -14.28211,-2.330069 -17.82936,-5.062826 C 9.0572772,76.510316 3.5932872,70.510685 1.9661172,64.624621 0.33894722,58.738558 0.54371722,52.231901 1.7948172,48.748976 c 1.25109,-3.482925 4.46458,-9.545608 6.94866,-11.746738 5.7700598,-5.415026 10.4696898,-8.190278 17.3790198,-8.213481 27.00461,0 52.150688,0.0054 79.084683,0.0054 8.00371,0 11.53253,2.695059 16.03587,6.706214 6.41463,5.713554 9.75215,13.033091 9.75215,20.65506 0,7.621968 -2.53996,14.441119 -8.16454,20.065695 -5.62457,5.624576 -13.24325,8.044691 -18.40181,8.044691 -5.158563,0 -10.543202,-1.309476 -11.846134,-1.895052 -1.302933,-0.585576 -2.354006,-1.190008 -2.354006,-1.190008 -6.369439,2.42577 -11.468027,0.951536 -15.422316,-2.97057 z"
       id="path1133"
       sodipodi:nodetypes="ccssssccssssssccc" />
    <path
       style="display:inline;fill:none;fill-opacity:1;stroke:#000000;stroke-width:0.2;stroke-linecap:butt;stroke-linejoin:miter;stroke-miterlimit:4;stroke-dasharray:none;stroke-opacity:1"
       d="m 30.823863,31.975462 c 0,0 -4.180634,0.03408 -5.478038,0.193984 -1.297403,0.159904 -7.772477,0.943547 -13.278661,6.104091 -5.5061845,5.160547 -8.7037741,12.689414 -7.9222185,20.367844 0.7815554,7.678431 4.7189408,12.195358 6.1607095,13.873882 1.441769,1.678522 7.010371,5.80205 9.476366,6.477746 2.432005,0.666383 5.043304,1.926908 11.502042,1.451589 3.307206,-0.243388 5.674598,-1.369208 5.9114,-1.473239 1.071092,-0.470548 -0.15032,-1.648226 -1.159348,-4.046928 -0.657177,-1.562267 23.960918,-4.265783 23.802952,-3.098025 -0.144707,1.069742 -0.36399,2.287132 0.01165,2.287132 0.619412,0 10.598051,0.09117 12.153751,0.09117 0.249262,0 0.200792,-1.053522 -0.0058,-2.26681 -0.219783,-1.290694 27.439395,-6.152401 23.823571,3.060221 -0.838191,2.135593 -2.016321,3.237328 -1.763167,3.562313 0.790384,1.014652 6.723228,1.925799 7.550218,1.979095 1.91884,0.10504 6.05848,-0.292957 8.2822,-0.89003 2.62715,-0.705393 4.91203,-1.685802 6.10703,-2.585788 2.22689,-1.677135 5.16764,-3.901767 6.42286,-5.616882 1.25493,-1.714729 1.87838,-2.563865 1.86583,-2.642304 l 0.4361,-0.789728 c 0.10839,-0.04176 1.75651,-3.43362 2.09717,-4.916345 0.34067,-1.482722 1.02474,-3.618002 0.97113,-6.501159 -0.0536,-2.883156 -0.73397,-7.901254 -2.20288,-10.388679 -1.46892,-2.487422 -2.36672,-4.537527 -5.09382,-7.352128 -2.72711,-2.8146 -4.65265,-3.612793 -7.28057,-4.850672 -2.62793,-1.237882 -6.7591,-1.832637 -7.5021,-1.868141 -0.74299,-0.0355 -3.51789,-0.142938 -3.51789,-0.142938 z"
       id="path1148"
       sodipodi:nodetypes="csssssssssssssscsssccsssssscc" />
    <circle
       style="font-variation-settings:normal;display:inline;opacity:1;vector-effect:none;fill:url(#radialGradient1060);fill-opacity:1;stroke:#000000;stroke-width:0.2;stroke-linecap:butt;stroke-linejoin:miter;stroke-miterlimit:4;stroke-dasharray:none;stroke-dashoffset:0;stroke-opacity:1;paint-order:markers fill stroke;stop-color:#000000;stop-opacity:1"
       id="circle102878"
       cx="84.307785"
       cy="70.080849"
       r="12.457896" />
    <circle
       style="font-variation-settings:normal;display:inline;opacity:1;vector-effect:none;fill:url(#radialGradient1326);fill-opacity:1;stroke:#000000;stroke-width:0.2;stroke-linecap:butt;stroke-linejoin:miter;stroke-miterlimit:4;stroke-dasharray:none;stroke-dashoffset:0;stroke-opacity:1;paint-order:markers fill stroke;stop-color:#000000;stop-opacity:1"
       id="circle1324"
       cx="47.514931"
       cy="70.080849"
       r="12.457896" />
    <path
       style="display:inline;opacity:1;fill:#c0c2ce;fill-opacity:1;stroke:#000000;stroke-width:0.2;stroke-linecap:butt;stroke-linejoin:miter;stroke-miterlimit:4;stroke-dasharray:none;stroke-opacity:1"
       d="m 24.041448,37.236844 6.527399,-0.01074 c 0,0 0.754794,-3.91e-4 1.473448,0.764289 0.758873,0.757122 0.826839,1.53009 0.826839,1.53009 l 0.01143,4.610397 c 0,0 -0.0052,0.178226 0.129405,0.303577 0.13461,0.125349 0.262664,0.115767 0.262664,0.115767 l 4.512811,0.02715 c 0,0 0.958557,0.09516 1.592377,0.728967 0.633817,0.63382 0.79866,1.643147 0.79866,1.643147 v 6.437823 c 0,0 0.103829,0.79894 -0.713272,1.623041 -0.898528,0.906225 -1.615185,0.81909 -1.615185,0.81909 h -4.543383 c 0,0 -0.06225,-0.06701 -0.23523,0.105971 -0.172985,0.172982 -0.179766,0.262027 -0.179766,0.262027 v 4.354883 c 0,0 0.08569,0.829001 -0.68012,1.758497 -0.765811,0.929496 -1.747438,0.873649 -1.747438,0.873649 h -6.414122 c 0,0 -0.837151,0.01603 -1.641833,-0.788656 -0.804682,-0.804683 -0.818139,-1.545117 -0.818139,-1.545117 v -4.551315 c 0,0 -0.02743,-0.194041 -0.107178,-0.283662 -0.123117,-0.138358 -0.297901,-0.197498 -0.297901,-0.197498 l -4.498555,0.03393 c 0,0 -0.903842,0.02279 -1.659187,-0.732561 -0.755346,-0.755346 -0.792988,-1.597368 -0.792988,-1.597368 v -6.564029 c 0,0 0.0194,-0.734872 0.817167,-1.532639 0.797765,-0.797763 1.686628,-0.882409 1.686628,-0.882409 h 4.477648 c 0,0 0.143301,-0.0088 0.237851,-0.115488 0.129089,-0.145707 0.145372,-0.282765 0.145372,-0.282765 v -4.380514 c 0,0 0.01041,-0.878815 0.807147,-1.675547 0.796732,-0.796732 1.637459,-0.851991 1.637459,-0.851991 z"
       id="path1168"
       sodipodi:nodetypes="cccccsccsccsccscczccsccsccsccsccsccscc" />
    <circle
       style="display:inline;opacity:1;fill:#c0c2ce;fill-opacity:1;stroke:#000000;stroke-width:0.2;stroke-linecap:square;stroke-miterlimit:4;stroke-dasharray:none;stroke-opacity:1;paint-order:markers fill stroke"
       id="path1174"
       cx="26.918806"
       cy="73.520996"
       r="4.0604353" />
    <circle
       style="display:inline;opacity:1;fill:#29292b;fill-opacity:1;stroke:#000000;stroke-width:0.2;stroke-linecap:square;stroke-miterlimit:4;stroke-dasharray:none;stroke-opacity:1;paint-order:markers fill stroke"
       id="circle1176"
       cx="104.54204"
       cy="73.456909"
       r="4.0604353" />
    <path
       style="display:inline;opacity:1;fill:#404447;fill-opacity:1;stroke:#000000;stroke-width:0.2;stroke-linecap:butt;stroke-linejoin:miter;stroke-miterlimit:4;stroke-dasharray:none;stroke-opacity:1"
       d="m 16.397743,52.244338 -0.0068,-4.146935 c 0,0 -2.49e-4,-0.47953 0.485562,-0.9361 0.481009,-0.482121 0.972085,-0.5253 0.972085,-0.5253 l 5.489931,-0.0072 c 0,0 0.11323,0.0033 0.192867,-0.08221 0.07963,-0.08552 0.07355,-0.166873 0.07355,-0.166873 l 0.01725,-5.648343 c 0,0 0.06046,-0.608983 0.463122,-1.011657 0.402674,-0.402672 1.043911,-0.507398 1.043911,-0.507398 h 4.090028 c 0,0 0.507575,-0.06596 1.031137,0.45315 0.575735,0.570846 0.520378,1.026147 0.520378,1.026147 v 5.667766 c 0,0 -0.04258,0.03954 0.06732,0.149444 0.109897,0.1099 0.166468,0.114208 0.166468,0.114208 h 5.369293 c 0,0 0.526675,-0.05444 1.117195,0.432088 0.590519,0.486529 0.555039,1.110168 0.555039,1.110168 v 4.074971 c 0,0 0.01019,0.531851 -0.501043,1.043075 -0.511224,0.511225 -0.981631,0.519775 -0.981631,0.519775 h -5.494089 c 0,0 -0.123276,0.01742 -0.180213,0.06809 -0.0879,0.07822 -0.125473,0.18926 -0.125473,0.18926 l 0.02156,5.632818 c 0,0 0.01448,0.574221 -0.465405,1.054101 -0.479886,0.479842 -1.014834,0.503756 -1.014834,0.503756 h -4.170207 c 0,0 -0.466873,-0.01233 -0.973704,-0.519156 -0.506829,-0.50683 -0.560605,-1.071535 -0.560605,-1.071535 v -5.619536 c 0,0 -0.0056,-0.09104 -0.07337,-0.151109 -0.09257,-0.08201 -0.179644,-0.09236 -0.179644,-0.09236 h -5.343885 c 0,0 -0.558322,-0.0066 -1.064495,-0.51279 -0.506174,-0.506174 -0.541281,-1.040298 -0.541281,-1.040298 z"
       id="path1227"
       sodipodi:nodetypes="cccccsccsccsccscczccsccsccsccsccsccscc" />
    <path
       style="display:inline;opacity:1;fill:#101011;fill-opacity:1;stroke:#000000;stroke-width:0.2;stroke-linecap:butt;stroke-linejoin:miter;stroke-miterlimit:4;stroke-dasharray:none;stroke-opacity:1"
       d="m 24.83938,38.671883 4.88165,-0.008 c 0,0 0.564489,-2.93e-4 1.101949,0.571589 0.567539,0.56623 0.618368,1.14431 0.618368,1.14431 l 0.0085,5.282716 c 0,0 -0.0039,0.13329 0.09678,0.227037 0.100671,0.09374 0.196438,0.08658 0.196438,0.08658 l 5.29366,0.0203 c 0,0 0.716877,0.07117 1.190893,0.545173 0.474013,0.474016 0.597294,1.228862 0.597294,1.228862 v 4.81466 c 0,0 0.07765,0.597503 -0.533435,1.213824 -0.671983,0.677739 -1.20795,0.612574 -1.20795,0.612574 h -5.316524 c 0,0 -0.04655,-0.05012 -0.175921,0.07925 -0.129371,0.129368 -0.134442,0.195962 -0.134442,0.195962 v 5.149021 c 0,0 0.06408,0.619986 -0.508642,1.315129 -0.572727,0.695142 -1.306857,0.653376 -1.306857,0.653376 h -4.796935 c 0,0 -0.62608,0.01199 -1.227878,-0.589813 -0.601799,-0.601798 -0.611863,-1.155547 -0.611863,-1.155547 v -5.295928 c 0,0 -0.02051,-0.145117 -0.08015,-0.212142 -0.09208,-0.103474 -0.222791,-0.147703 -0.222791,-0.147703 l -5.159857,0.02538 c 0,0 -0.675956,0.01704 -1.240857,-0.547861 C 15.735955,53.315724 15.707804,52.686 15.707804,52.686 v -4.909045 c 0,0 0.01451,-0.549589 0.611135,-1.146216 0.596625,-0.596624 1.261379,-0.659928 1.261379,-0.659928 h 5.144221 c 0,0 0.107171,-0.0066 0.177882,-0.08637 0.09654,-0.10897 0.10872,-0.211471 0.10872,-0.211471 v -5.110795 c 0,0 0.0078,-0.65724 0.603641,-1.253092 0.595853,-0.595853 1.224608,-0.63718 1.224608,-0.63718 z"
       id="path1170"
       sodipodi:nodetypes="cccccsccsccsccscczccsccsccsccsccsccscc" />
    <circle
       style="font-variation-settings:normal;display:inline;opacity:1;vector-effect:none;fill:#161617;fill-opacity:1;stroke:#000000;stroke-width:0.2;stroke-linecap:butt;stroke-linejoin:miter;stroke-miterlimit:4;stroke-dasharray:none;stroke-dashoffset:0;stroke-opacity:1;paint-order:markers fill stroke;stop-color:#000000;stop-opacity:1"
       id="path1263"
       cx="27.218582"
       cy="50.230621"
       r="2.8518989" />
    <circle
       style="display:inline;opacity:1;fill:#c0c2ce;fill-opacity:1;stroke:#000000;stroke-width:0.319562;stroke-linecap:square;stroke-miterlimit:4;stroke-dasharray:none;stroke-opacity:1;paint-order:markers fill stroke"
       id="circle1705"
       cx="-117.90745"
       cy="-43.624729"
       r="6.4878106"
       transform="rotate(178.78788,-1.0054605,4.7264673)" />
    <circle
       style="display:inline;opacity:1;fill:#c0c2ce;fill-opacity:1;stroke:#000000;stroke-width:0.319562;stroke-linecap:square;stroke-miterlimit:4;stroke-dasharray:none;stroke-opacity:1;paint-order:markers fill stroke"
       id="circle1739"
       cx="-105.61938"
       cy="-33.582951"
       r="6.4878106"
       transform="rotate(178.78788,-1.0054605,4.7264673)" />
    <circle
       style="display:inline;opacity:1;fill:#c0c2ce;fill-opacity:1;stroke:#000000;stroke-width:0.319562;stroke-linecap:square;stroke-miterlimit:4;stroke-dasharray:none;stroke-opacity:1;paint-order:markers fill stroke"
       id="circle1759"
       cx="-93.437546"
       cy="-42.706043"
       r="6.4878106"
       transform="rotate(178.78788,-1.0054605,4.7264673)" />
    <circle
       style="display:inline;opacity:1;fill:#c0c2ce;fill-opacity:1;stroke:#000000;stroke-width:0.319562;stroke-linecap:square;stroke-miterlimit:4;stroke-dasharray:none;stroke-opacity:1;paint-order:markers fill stroke"
       id="circle1777"
       cx="-105.55965"
       cy="-52.515606"
       r="6.4878106"
       transform="rotate(178.78788,-1.0054605,4.7264673)" />
    <path
       id="path1150"
       style="display:inline;opacity:1;fill:#c0c2ce;fill-opacity:1;stroke:#000000;stroke-width:0.199515;stroke-linecap:square;stroke-miterlimit:4;stroke-dasharray:none;stroke-opacity:1;paint-order:markers fill stroke"
       d="M 75.660919,45.010685 H 56.031624 c -0.02875,-0.0011 -0.05598,0 -0.08268,0 -2.54635,0.01982 -4.600109,2.079347 -4.600236,4.613153 5.29e-4,2.533605 2.054087,4.59282 4.600236,4.61264 0.03123,0.0011 0.06368,0 0.0925,0 H 75.83972 v 0 c 2.548588,-0.01675 4.605785,-2.082731 4.605919,-4.617291 9.6e-5,-2.546557 -1.996506,-4.49978 -4.55495,-4.607354 -0.08131,-0.0024 -0.161372,-0.0013 -0.229769,-0.0011 z"
       sodipodi:nodetypes="ccccccccccc" />
    <path
       id="path1160"
       style="display:inline;opacity:1;fill:#a2a2ac;fill-opacity:1;stroke:#000000;stroke-width:0.169643;stroke-linecap:square;stroke-miterlimit:4;stroke-dasharray:none;stroke-opacity:1;paint-order:markers fill stroke"
       d="m 56.471387,46.014497 h 19.203831 c 0.02657,-8.46e-4 0.05173,0 0.0764,0 2.657535,0.0122 3.742473,2.118704 3.695521,3.609285 -0.02958,1.601103 -1.206698,3.543609 -3.695521,3.608884 -0.02886,8.46e-4 -0.05884,0 -0.08548,0 H 56.306165 v 0 c -2.355035,-0.01311 -3.833138,-2.18142 -3.85257,-3.630477 -0.07122,-1.745527 1.333477,-3.598858 3.805472,-3.586794 0.07514,-0.0019 0.149117,-10e-4 0.212319,-8.47e-4 z"
       sodipodi:nodetypes="cccccccccccc" />
    <path
       id="path1164"
       style="display:inline;opacity:1;fill:#c0c2ce;fill-opacity:1;stroke:#000000;stroke-width:0.13574;stroke-linecap:square;stroke-miterlimit:4;stroke-dasharray:none;stroke-opacity:1;paint-order:markers fill stroke"
       d="m 57.322782,47.084862 h 17.478856 c 0.02418,-5.95e-4 0.435702,0 0.458162,0 2.240746,0 3.109851,1.567516 3.109851,2.556555 -0.04149,1.474006 -1.23057,2.520884 -3.329465,2.520884 -0.02627,5.95e-4 -0.222568,0 -0.246808,0 h -17.620977 -0.22857 c -2.776921,-0.05263 -3.260258,-1.534465 -3.277945,-2.553767 -0.06482,-1.227847 0.961745,-2.530248 2.492689,-2.523041 0.06839,-0.0013 1.106681,-7.03e-4 1.164206,-5.95e-4 z"
       sodipodi:nodetypes="cccccccccccc" />
    <path
       id="path1265"
       style="display:inline;opacity:1;fill:#000000;fill-opacity:1;stroke:#000000;stroke-width:0.2;stroke-linecap:square;stroke-miterlimit:4;stroke-dasharray:none;stroke-opacity:1;paint-order:markers fill stroke"
       d="m 75.76445,47.804282 -6.588462,0.0253 c -0.01134,-4.35e-4 -0.02209,0 -0.03261,0 -1.004495,0.0078 -1.814671,0.82027 -1.814722,1.819817 2.1e-4,0.999467 0.810306,1.811795 1.814722,1.819614 0.01232,4.34e-4 0.02512,0 0.03649,0 l 6.655121,-0.0253 v 0 c 1.005378,-0.0066 1.81691,-0.821605 1.816964,-1.82145 3.7e-5,-1.004577 -0.787591,-1.775092 -1.796858,-1.817529 -0.03208,-9.47e-4 -0.06365,-5.13e-4 -0.09064,-4.34e-4 z"
       sodipodi:nodetypes="cccccccccccc" />
    <path
       id="path102616"
       style="display:inline;opacity:1;fill:#000000;fill-opacity:1;stroke:#000000;stroke-width:0.2;stroke-linecap:square;stroke-miterlimit:4;stroke-dasharray:none;stroke-opacity:1;paint-order:markers fill stroke"
       d="m 62.754876,47.804282 -6.588462,0.0253 c -0.01134,-4.35e-4 -0.02209,0 -0.03261,0 -1.004495,0.0078 -1.814671,0.82027 -1.814722,1.819817 2.1e-4,0.999467 0.810306,1.811795 1.814722,1.819614 0.01232,4.34e-4 0.02512,0 0.03649,0 l 6.655121,-0.0253 v 0 c 1.005378,-0.0066 1.81691,-0.821605 1.816964,-1.82145 3.7e-5,-1.004577 -0.787591,-1.775092 -1.796858,-1.817529 -0.03208,-9.47e-4 -0.06365,-5.13e-4 -0.09064,-4.34e-4 z"
       sodipodi:nodetypes="cccccccccccc" />
  </g>
  <g
     inkscape:groupmode="layer"
     id="layer6"
     inkscape:label="Buttons Active"
     style="display:inline"
     transform="translate(-41.703096,-52.885155)" />
  <g
     inkscape:groupmode="layer"
     id="layer4"
     inkscape:label="Shoulds Active"
     style="display:inline"
     transform="translate(-41.703096,-52.885155)" />
  <g
     inkscape:groupmode="layer"
     id="layer8"
     inkscape:label="Buttons"
     style="display:inline;opacity:1"
     transform="translate(-39.792384,-62.358301)">
    <circle
       style="display:inline;opacity:1;fill:url(#radialGradient1057);fill-opacity:1;stroke:#000000;stroke-width:0.180631;stroke-linecap:square;stroke-miterlimit:4;stroke-dasharray:none;stroke-opacity:1;paint-order:markers fill stroke"
       id="circle1055"
       cx="47.514931"
       cy="70.080849"
       r="7.6322317"
       gpv-btn="ls" />
  </g>
  <g
     inkscape:groupmode="layer"
     id="layer7"
     inkscape:label="Top"
     transform="translate(-39.792384,-62.358301)"
     style="display:none">
    <text
       xml:space="preserve"
       style="font-style:normal;font-weight:normal;font-size:1.81432px;line-height:1.25;font-family:sans-serif;font-variation-settings:normal;display:inline;opacity:1;vector-effect:none;fill:#000080;fill-opacity:1;stroke:#000080;stroke-width:0;stroke-linecap:butt;stroke-linejoin:miter;stroke-miterlimit:4;stroke-dasharray:none;stroke-dashoffset:0;stroke-opacity:1;paint-order:markers fill stroke;stop-color:#000000;stop-opacity:1"
       x="56.118652"
       y="56.100304"
       id="text3879"><tspan
         sodipodi:role="line"
         id="tspan3877"
         x="56.118652"
         y="56.100304"
         style="font-variation-settings:normal;vector-effect:none;fill:#000080;fill-opacity:1;stroke:#000080;stroke-width:0;stroke-linecap:butt;stroke-linejoin:miter;stroke-miterlimit:4;stroke-dasharray:none;stroke-dashoffset:0;stroke-opacity:1;paint-order:markers fill stroke;stop-color:#000000;stop-opacity:1">- select</tspan></text>
    <text
       xml:space="preserve"
       style="font-style:normal;font-weight:normal;font-size:1.81432px;line-height:1.25;font-family:sans-serif;font-variation-settings:normal;display:inline;opacity:1;vector-effect:none;fill:#000080;fill-opacity:1;stroke:#000080;stroke-width:0;stroke-linecap:butt;stroke-linejoin:miter;stroke-miterlimit:4;stroke-dasharray:none;stroke-dashoffset:0;stroke-opacity:1;paint-order:markers fill stroke;stop-color:#000000;stop-opacity:1"
       x="69.22612"
       y="56.100304"
       id="text3897"><tspan
         sodipodi:role="line"
         id="tspan3895"
         x="69.22612"
         y="56.100304"
         style="font-variation-settings:normal;vector-effect:none;fill:#000080;fill-opacity:1;stroke:#000080;stroke-width:0;stroke-linecap:butt;stroke-linejoin:miter;stroke-miterlimit:4;stroke-dasharray:none;stroke-dashoffset:0;stroke-opacity:1;paint-order:markers fill stroke;stop-color:#000000;stop-opacity:1">+ start</tspan></text>
    <text
       xml:space="preserve"
       style="font-style:normal;font-variant:normal;font-weight:bold;font-stretch:normal;font-size:2.75167px;line-height:1.25;font-family:sans-serif;-inkscape-font-specification:'sans-serif, Bold';font-variant-ligatures:normal;font-variant-caps:normal;font-variant-numeric:normal;font-variant-east-asian:normal;display:inline;opacity:1;vector-effect:none;fill:#000080;fill-opacity:1;stroke:#000080;stroke-width:0;stroke-linecap:butt;stroke-linejoin:miter;stroke-miterlimit:4;stroke-dasharray:none;stroke-dashoffset:0;stroke-opacity:1;paint-order:markers fill stroke;stop-color:#000000;stop-opacity:1"
       x="52.943649"
       y="41.378536"
       id="text1071"><tspan
         sodipodi:role="line"
         id="tspan1069"
         x="52.943649"
         y="41.378536"
         style="font-style:normal;font-variant:normal;font-weight:bold;font-stretch:normal;font-size:2.75167px;font-family:sans-serif;-inkscape-font-specification:'sans-serif, Bold';font-variant-ligatures:normal;font-variant-caps:normal;font-variant-numeric:normal;font-variant-east-asian:normal;vector-effect:none;fill:#000080;fill-opacity:1;stroke:#000080;stroke-width:0;stroke-linecap:butt;stroke-linejoin:miter;stroke-miterlimit:4;stroke-dasharray:none;stroke-dashoffset:0;stroke-opacity:1;paint-order:markers fill stroke;stop-color:#000000;stop-opacity:1">8BitDo</tspan></text>
    <path
       style="display:inline;opacity:1;fill:none;stroke:#000080;stroke-width:0.2;stroke-linecap:butt;stroke-linejoin:miter;stroke-miterlimit:4;stroke-dasharray:none;stroke-opacity:1"
       d="M 52.778831,42.268189 H 78.522543"
       id="path1073" />
    <text
       xml:space="preserve"
       style="font-style:normal;font-variant:normal;font-weight:normal;font-stretch:normal;font-size:2.64583px;line-height:1.25;font-family:sans-serif;-inkscape-font-specification:'sans-serif, Normal';font-variant-ligatures:normal;font-variant-caps:normal;font-variant-numeric:normal;font-variant-east-asian:normal;display:inline;opacity:1;vector-effect:none;fill:#000080;fill-opacity:1;stroke:#000080;stroke-width:0;stroke-linecap:butt;stroke-linejoin:miter;stroke-miterlimit:4;stroke-dasharray:none;stroke-dashoffset:0;stroke-opacity:1;paint-order:markers fill stroke;stop-color:#000000;stop-opacity:1"
       x="64.396439"
       y="41.378536"
       id="text1077"><tspan
         sodipodi:role="line"
         id="tspan1075"
         x="64.396439"
         y="41.378536"
         style="font-style:normal;font-variant:normal;font-weight:normal;font-stretch:normal;font-size:2.64583px;font-family:sans-serif;-inkscape-font-specification:'sans-serif, Normal';font-variant-ligatures:normal;font-variant-caps:normal;font-variant-numeric:normal;font-variant-east-asian:normal;vector-effect:none;fill:#000080;fill-opacity:1;stroke:#000080;stroke-width:0;stroke-linecap:butt;stroke-linejoin:miter;stroke-miterlimit:4;stroke-dasharray:none;stroke-dashoffset:0;stroke-opacity:1;paint-order:markers fill stroke;stop-color:#000000;stop-opacity:1">SN30 pro+</tspan></text>
    <text
       xml:space="preserve"
       style="font-style:normal;font-variant:normal;font-weight:normal;font-stretch:normal;font-size:3.23972px;line-height:1.25;font-family:sans-serif;font-variant-ligatures:normal;font-variant-position:normal;font-variant-caps:normal;font-variant-numeric:normal;font-variant-alternates:normal;font-variant-east-asian:normal;font-feature-settings:normal;font-variation-settings:normal;text-indent:0;text-align:start;text-decoration:none;text-decoration-line:none;text-decoration-style:solid;text-decoration-color:#000000;letter-spacing:normal;word-spacing:normal;text-transform:none;writing-mode:lr-tb;direction:ltr;text-orientation:mixed;dominant-baseline:auto;baseline-shift:baseline;text-anchor:start;white-space:normal;shape-padding:0;shape-margin:0;inline-size:0;display:inline;opacity:1;vector-effect:none;fill:#000080;fill-opacity:1;stroke:#000080;stroke-width:0;stroke-linecap:butt;stroke-linejoin:miter;stroke-miterlimit:4;stroke-dasharray:none;stroke-dashoffset:0;stroke-opacity:1;paint-order:markers fill stroke;stop-color:#000000;stop-opacity:1"
       x="91.662636"
       y="35.904472"
       id="text3901"
       transform="translate(3.8390336,-0.17598049)"><tspan
         sodipodi:role="line"
         id="tspan3899"
         x="91.662636"
         y="35.904472"
         style="font-style:normal;font-variant:normal;font-weight:normal;font-stretch:normal;font-size:3.23972px;line-height:1.25;font-family:sans-serif;font-variant-ligatures:normal;font-variant-position:normal;font-variant-caps:normal;font-variant-numeric:normal;font-variant-alternates:normal;font-variant-east-asian:normal;font-feature-settings:normal;font-variation-settings:normal;text-indent:0;text-align:start;text-decoration:none;text-decoration-line:none;text-decoration-style:solid;text-decoration-color:#000000;letter-spacing:normal;word-spacing:normal;text-transform:none;writing-mode:lr-tb;direction:ltr;text-orientation:mixed;dominant-baseline:auto;baseline-shift:baseline;text-anchor:start;white-space:normal;shape-padding:0;shape-margin:0;inline-size:0;vector-effect:none;fill:#000080;fill-opacity:1;stroke:#000080;stroke-width:0;stroke-linecap:butt;stroke-linejoin:miter;stroke-miterlimit:4;stroke-dasharray:none;stroke-dashoffset:0;stroke-opacity:1;paint-order:markers fill stroke;stop-color:#000000;stop-opacity:1">X</tspan></text>
    <text
       xml:space="preserve"
       style="font-style:normal;font-variant:normal;font-weight:normal;font-stretch:normal;font-size:3.23972px;line-height:1.25;font-family:sans-serif;font-variant-ligatures:normal;font-variant-position:normal;font-variant-caps:normal;font-variant-numeric:normal;font-variant-alternates:normal;font-variant-east-asian:normal;font-feature-settings:normal;font-variation-settings:normal;text-indent:0;text-align:start;text-decoration:none;text-decoration-line:none;text-decoration-style:solid;text-decoration-color:#000000;letter-spacing:normal;word-spacing:normal;text-transform:none;writing-mode:lr-tb;direction:ltr;text-orientation:mixed;dominant-baseline:auto;baseline-shift:baseline;text-anchor:start;white-space:normal;shape-padding:0;shape-margin:0;inline-size:0;display:inline;opacity:1;vector-effect:none;fill:#000080;fill-opacity:1;stroke:#000080;stroke-width:0;stroke-linecap:butt;stroke-linejoin:miter;stroke-miterlimit:4;stroke-dasharray:none;stroke-dashoffset:0;stroke-opacity:1;paint-order:markers fill stroke;stop-color:#000000;stop-opacity:1"
       x="84.727066"
       y="43.586182"
       id="text3905"
       transform="translate(-1.0936679,1.5210562)"><tspan
         sodipodi:role="line"
         id="tspan3903"
         x="84.727066"
         y="43.586182"
         style="font-style:normal;font-variant:normal;font-weight:normal;font-stretch:normal;font-size:3.23972px;line-height:1.25;font-family:sans-serif;font-variant-ligatures:normal;font-variant-position:normal;font-variant-caps:normal;font-variant-numeric:normal;font-variant-alternates:normal;font-variant-east-asian:normal;font-feature-settings:normal;font-variation-settings:normal;text-indent:0;text-align:start;text-decoration:none;text-decoration-line:none;text-decoration-style:solid;text-decoration-color:#000000;letter-spacing:normal;word-spacing:normal;text-transform:none;writing-mode:lr-tb;direction:ltr;text-orientation:mixed;dominant-baseline:auto;baseline-shift:baseline;text-anchor:start;white-space:normal;shape-padding:0;shape-margin:0;inline-size:0;vector-effect:none;fill:#000080;fill-opacity:1;stroke:#000080;stroke-width:0;stroke-linecap:butt;stroke-linejoin:miter;stroke-miterlimit:4;stroke-dasharray:none;stroke-dashoffset:0;stroke-opacity:1;paint-order:markers fill stroke;stop-color:#000000;stop-opacity:1">Y</tspan></text>
    <text
       xml:space="preserve"
       style="font-style:normal;font-weight:normal;font-size:3.23972px;line-height:1.25;font-family:sans-serif;font-variation-settings:normal;display:inline;opacity:1;vector-effect:none;fill:#000080;fill-opacity:1;stroke:#000080;stroke-width:0;stroke-linecap:butt;stroke-linejoin:miter;stroke-miterlimit:4;stroke-dasharray:none;stroke-dashoffset:0;stroke-opacity:1;paint-order:markers fill stroke;stop-color:#000000;stop-opacity:1"
       x="111.70261"
       y="65.877533"
       id="text3909"><tspan
         sodipodi:role="line"
         id="tspan3907"
         x="111.70261"
         y="65.877533"
         style="font-variation-settings:normal;vector-effect:none;fill:#000080;fill-opacity:1;stroke:#000080;stroke-width:0;stroke-linecap:butt;stroke-linejoin:miter;stroke-miterlimit:4;stroke-dasharray:none;stroke-dashoffset:0;stroke-opacity:1;paint-order:markers fill stroke;stop-color:#000000;stop-opacity:1">B</tspan></text>
    <text
       xml:space="preserve"
       style="font-style:normal;font-variant:normal;font-weight:normal;font-stretch:normal;font-size:3.23972px;line-height:1.25;font-family:sans-serif;font-variant-ligatures:normal;font-variant-position:normal;font-variant-caps:normal;font-variant-numeric:normal;font-variant-alternates:normal;font-variant-east-asian:normal;font-feature-settings:normal;font-variation-settings:normal;text-indent:0;text-align:start;text-decoration:none;text-decoration-line:none;text-decoration-style:solid;text-decoration-color:#000000;letter-spacing:normal;word-spacing:normal;text-transform:none;writing-mode:lr-tb;direction:ltr;text-orientation:mixed;dominant-baseline:auto;baseline-shift:baseline;text-anchor:start;white-space:normal;shape-padding:0;shape-margin:0;inline-size:0;display:inline;opacity:1;vector-effect:none;fill:#000080;fill-opacity:1;stroke:#000080;stroke-width:0;stroke-linecap:butt;stroke-linejoin:miter;stroke-miterlimit:4;stroke-dasharray:none;stroke-dashoffset:0;stroke-opacity:1;paint-order:markers fill stroke;stop-color:#000000;stop-opacity:1"
       x="121.89328"
       y="58.601936"
       id="text3913"
       transform="translate(2.0149837,-1.9933452)"><tspan
         sodipodi:role="line"
         id="tspan3911"
         x="121.89328"
         y="58.601936"
         style="font-style:normal;font-variant:normal;font-weight:normal;font-stretch:normal;font-size:3.23972px;line-height:1.25;font-family:sans-serif;font-variant-ligatures:normal;font-variant-position:normal;font-variant-caps:normal;font-variant-numeric:normal;font-variant-alternates:normal;font-variant-east-asian:normal;font-feature-settings:normal;font-variation-settings:normal;text-indent:0;text-align:start;text-decoration:none;text-decoration-line:none;text-decoration-style:solid;text-decoration-color:#000000;letter-spacing:normal;word-spacing:normal;text-transform:none;writing-mode:lr-tb;direction:ltr;text-orientation:mixed;dominant-baseline:auto;baseline-shift:baseline;text-anchor:start;white-space:normal;shape-padding:0;shape-margin:0;inline-size:0;vector-effect:none;fill:#000080;fill-opacity:1;stroke:#000080;stroke-width:0;stroke-linecap:butt;stroke-linejoin:miter;stroke-miterlimit:4;stroke-dasharray:none;stroke-dashoffset:0;stroke-opacity:1;paint-order:markers fill stroke;stop-color:#000000;stop-opacity:1">A</tspan></text>
  </g>
  <g
     inkscape:groupmode="layer"
     id="layer1"
     inkscape:label="tmp"
     style="display:none"
     transform="translate(-41.703096,-52.885155)" />
  <g
     inkscape:groupmode="layer"
     id="layer3"
     inkscape:label="tmp 2"
     style="display:none"
     transform="translate(-41.703096,-52.885155)" />
</svg>
