<?xml version="1.0" encoding="UTF-8" standalone="no"?>
<svg
   xmlns:dc="http://purl.org/dc/elements/1.1/"
   xmlns:cc="http://creativecommons.org/ns#"
   xmlns:rdf="http://www.w3.org/1999/02/22-rdf-syntax-ns#"
   xmlns:svg="http://www.w3.org/2000/svg"
   xmlns="http://www.w3.org/2000/svg"
   xmlns:sodipodi="http://sodipodi.sourceforge.net/DTD/sodipodi-0.dtd"
   xmlns:inkscape="http://www.inkscape.org/namespaces/inkscape"
   height="13.229166mm"
   viewBox="0 0 13.229166 13.229167"
   width="13.229166mm"
   version="1.1"
   id="svg12"
   sodipodi:docname="face_lit.svg"
   inkscape:version="1.0.2 (e86c870879, 2021-01-15)">
  <metadata
     id="metadata18">
    <rdf:RDF>
      <cc:Work
         rdf:about="">
        <dc:format>image/svg+xml</dc:format>
        <dc:type
           rdf:resource="http://purl.org/dc/dcmitype/StillImage" />
        <dc:title></dc:title>
      </cc:Work>
    </rdf:RDF>
  </metadata>
  <defs
     id="defs16" />
  <sodipodi:namedview
     pagecolor="#ffffff"
     bordercolor="#666666"
     borderopacity="1"
     objecttolerance="10"
     gridtolerance="10"
     guidetolerance="10"
     inkscape:pageopacity="0"
     inkscape:pageshadow="2"
     inkscape:window-width="1920"
     inkscape:window-height="1163"
     id="namedview14"
     showgrid="false"
     inkscape:zoom="18.308561"
     inkscape:cx="21.82343"
     inkscape:cy="25.324473"
     inkscape:window-x="0"
     inkscape:window-y="0"
     inkscape:window-maximized="1"
     inkscape:current-layer="svg12"
     inkscape:document-rotation="0"
     fit-margin-top="0"
     fit-margin-left="0"
     fit-margin-right="0"
     fit-margin-bottom="0" />
  <circle
     style="fill:#6a2c4d;fill-opacity:1;stroke-width:0"
     id="path835"
     cx="6.6145835"
     cy="6.6145835"
     r="6.6145835" />
  <path
     style="fill:#30ded4;stroke-width:0"
     d="M 23.352769,49.921866 C 23.247627,49.911741 22.878947,49.877255 22.53348,49.845229 19.627885,49.575873 16.538703,48.683441 13.850661,47.336857 10.835141,45.82622 8.1891607,43.758627 6.0131759,41.212575 2.1541791,36.697283 0.03034634,30.940862 0.03034634,24.996757 0.03034634,17.169576 3.7088768,9.789506 9.9650081,5.0652918 13.199944,2.6224837 17.04873,0.98285062 21.05876,0.33920928 c 2.220614,-0.35642599 4.864473,-0.39620807 7.127813,-0.10725203 5.94081,0.75845099 11.494503,3.69614655 15.479086,8.18785565 3.003932,3.3862481 5.068883,7.5912321 5.877296,11.9682911 0.323747,1.752886 0.37757,2.403623 0.378931,4.581344 0.0013,2.161227 -0.0402,2.709348 -0.331235,4.36954 -1.04916,5.984885 -4.288682,11.41472 -9.093733,15.24221 -3.838807,3.057823 -8.632288,4.931287 -13.615484,5.321418 -0.641844,0.05025 -3.069243,0.06349 -3.528665,0.01925 z"
     id="path830"
     transform="scale(0.26458335)" />
</svg>
