<?xml version="1.0" encoding="UTF-8" standalone="no"?>
<svg
   xmlns:dc="http://purl.org/dc/elements/1.1/"
   xmlns:cc="http://creativecommons.org/ns#"
   xmlns:rdf="http://www.w3.org/1999/02/22-rdf-syntax-ns#"
   xmlns:svg="http://www.w3.org/2000/svg"
   xmlns="http://www.w3.org/2000/svg"
   xmlns:sodipodi="http://sodipodi.sourceforge.net/DTD/sodipodi-0.dtd"
   xmlns:inkscape="http://www.inkscape.org/namespaces/inkscape"
   height="13.295238mm"
   viewBox="0 0 13.295238 13.295239"
   width="13.295238mm"
   version="1.1"
   id="svg12"
   sodipodi:docname="face.svg"
   inkscape:version="1.0.2 (e86c870879, 2021-01-15)">
  <metadata
     id="metadata18">
    <rdf:RDF>
      <cc:Work
         rdf:about="">
        <dc:format>image/svg+xml</dc:format>
        <dc:type
           rdf:resource="http://purl.org/dc/dcmitype/StillImage" />
      </cc:Work>
    </rdf:RDF>
  </metadata>
  <defs
     id="defs16" />
  <sodipodi:namedview
     pagecolor="#ffffff"
     bordercolor="#666666"
     borderopacity="1"
     objecttolerance="10"
     gridtolerance="10"
     guidetolerance="10"
     inkscape:pageopacity="0"
     inkscape:pageshadow="2"
     inkscape:window-width="1656"
     inkscape:window-height="885"
     id="namedview14"
     showgrid="false"
     inkscape:zoom="9.1542805"
     inkscape:cx="-10.548756"
     inkscape:cy="33.977308"
     inkscape:window-x="26"
     inkscape:window-y="23"
     inkscape:window-maximized="0"
     inkscape:current-layer="svg12" />
  <g
     stroke="#000"
     stroke-linecap="square"
     stroke-width=".319562"
     transform="translate(-88.916709 -106.337828)"
     id="g10">
    <circle
       cx="-93.152863"
       cy="-114.98172"
       fill="#c0c2ce"
       r="6.487811"
       transform="matrix(-.99977623 .02115391 -.02115391 -.99977623 0 0)"
       id="circle2" />
    <g
       fill="#212229"
       transform="matrix(-.99991256 .0132238 -.0132238 -.99991256 -9.17189 53.241445)"
       id="g8">
      <circle
         cx="-103.93703"
         cy="-61.123787"
         r="4.834395"
         id="circle4" />
      <circle
         cx="-103.94381"
         cy="-60.606075"
         r="4.834395"
         id="circle6" />
    </g>
  </g>
  <path
     style="fill:#652146;stroke:none;stroke-width:0;fill-opacity:1"
     d="M 23.70684,40.741938 C 15.953023,40.141699 9.516362,34.458985 7.8348547,26.729088 7.5065381,25.219815 7.476571,21.347445 7.7816022,19.847742 c 0.4821436,-2.370488 1.6286131,-5.028338 2.9983028,-6.95094 0.942568,-1.323062 2.746096,-3.1270588 4.071821,-4.0728798 1.266246,-0.9033868 3.50323,-2.022725 4.958747,-2.4812489 1.948984,-0.613978 3.422129,-0.8004592 5.798719,-0.7340426 2.332393,0.065181 3.440018,0.2537053 5.305439,0.9030154 5.824456,2.0273605 10.142881,6.9255309 11.458196,12.9964529 0.627205,2.894901 0.449731,6.197736 -0.492797,9.171141 -0.408387,1.288341 -1.563104,3.568005 -2.406965,4.751875 -0.923503,1.295603 -2.856414,3.22766 -4.117752,4.115933 -3.372394,2.374944 -7.525553,3.514054 -11.648473,3.19489 z"
     id="path37"
     transform="scale(0.26458335)" />
</svg>
