<?xml version="1.0" encoding="UTF-8" standalone="no"?>
<svg
   xmlns:dc="http://purl.org/dc/elements/1.1/"
   xmlns:cc="http://creativecommons.org/ns#"
   xmlns:rdf="http://www.w3.org/1999/02/22-rdf-syntax-ns#"
   xmlns:svg="http://www.w3.org/2000/svg"
   xmlns="http://www.w3.org/2000/svg"
   xmlns:sodipodi="http://sodipodi.sourceforge.net/DTD/sodipodi-0.dtd"
   xmlns:inkscape="http://www.inkscape.org/namespaces/inkscape"
   width="45mm"
   height="45mm"
   viewBox="0 0 45 45"
   version="1.1"
   id="svg899"
   sodipodi:docname="home_lit.svg"
   inkscape:version="1.0.2 (e86c870879, 2021-01-15)">
  <defs
     id="defs893" />
  <sodipodi:namedview
     id="base"
     pagecolor="#ffffff"
     bordercolor="#666666"
     borderopacity="1.0"
     inkscape:pageopacity="0.0"
     inkscape:pageshadow="2"
     inkscape:zoom="1.98"
     inkscape:cx="108.31686"
     inkscape:cy="95.242037"
     inkscape:document-units="mm"
     inkscape:current-layer="layer1"
     inkscape:document-rotation="0"
     showgrid="false"
     inkscape:window-width="1920"
     inkscape:window-height="1163"
     inkscape:window-x="0"
     inkscape:window-y="0"
     inkscape:window-maximized="1"
     fit-margin-top="0"
     fit-margin-left="0"
     fit-margin-right="0"
     fit-margin-bottom="0" />
  <metadata
     id="metadata896">
    <rdf:RDF>
      <cc:Work
         rdf:about="">
        <dc:format>image/svg+xml</dc:format>
        <dc:type
           rdf:resource="http://purl.org/dc/dcmitype/StillImage" />
        <dc:title></dc:title>
      </cc:Work>
    </rdf:RDF>
  </metadata>
  <g
     inkscape:groupmode="layer"
     id="layer3"
     inkscape:label="bg">
    <circle
       style="fill:#909090;fill-opacity:0.50566;stroke-width:0"
       id="path1815"
       cx="22.5"
       cy="22.5"
       r="20" />
  </g>
  <g
     inkscape:label="Layer 1"
     inkscape:groupmode="layer"
     id="layer1"
     transform="translate(-5)">
    <circle
       style="fill:#e8e5e0;fill-opacity:1;stroke-width:0"
       id="path1573"
       cx="27.5"
       cy="22.5"
       r="17.5" />
    <rect
       style="fill:#a8a5a0;fill-opacity:1;stroke-width:0"
       id="rect1577"
       width="5"
       height="5"
       x="25"
       y="17.5" />
    <rect
       style="fill:#a8a5a0;fill-opacity:1;stroke-width:0"
       id="rect1577-1"
       width="5"
       height="5"
       x="30"
       y="12.500001" />
    <rect
       style="fill:#a8a5a0;fill-opacity:1;stroke-width:0"
       id="rect1577-2"
       width="5"
       height="5"
       x="35"
       y="17.5" />
    <rect
       style="fill:#a8a5a0;fill-opacity:1;stroke-width:0"
       id="rect1577-7"
       width="5"
       height="5"
       x="30"
       y="22.5" />
    <rect
       style="fill:#a8a5a0;fill-opacity:1;stroke-width:0"
       id="rect1577-0"
       width="5"
       height="5"
       x="25"
       y="27.5" />
    <rect
       style="fill:#a8a5a0;fill-opacity:1;stroke-width:0"
       id="rect1577-9"
       width="5"
       height="5"
       x="20"
       y="22.5" />
    <rect
       style="fill:#a8a5a0;fill-opacity:1;stroke-width:0"
       id="rect1577-3"
       width="5"
       height="5"
       x="15"
       y="17.5" />
    <rect
       style="fill:#a8a5a0;fill-opacity:1;stroke-width:0"
       id="rect1577-6"
       width="5"
       height="5"
       x="20"
       y="12.5" />
    <path
       style="fill:#ffffff;stroke-width:0"
       d="M 78.771405,150.7387 C 63.310996,149.27453 49.670197,142.80421 38.571942,131.67064 32.759497,125.83971 29.249989,121.00291 25.811362,114.08405 7.3736903,76.985567 27.942081,31.894594 68.165345,21.233692 c 35.500725,-9.409226 71.813935,11.987314 80.858965,47.643867 4.89148,19.282776 0.75752,39.857091 -11.21324,55.807211 -5.7919,7.71726 -14.74296,15.22146 -23.18108,19.43406 -10.45691,5.22044 -24.079807,7.73537 -35.858585,6.61987 z m 15.909091,-37.06232 v -9.34343 h 9.343434 9.34344 v -9.595964 -9.595959 h 9.59595 9.59596 v -9.59596 -9.595959 h -9.59596 -9.59595 v -9.343435 -9.343434 h -9.59596 -9.595964 v 9.343434 9.343435 h -9.090909 -9.090909 v -9.343435 -9.343434 h -9.848485 -9.848485 v 9.343434 9.343435 h -9.343434 -9.343435 v 9.595959 9.59596 h 9.332291 9.33229 l 0.137407,9.469697 0.137406,9.469696 9.469697,0.13741 9.469697,0.1374 v 9.3323 9.33228 h 9.59596 9.595959 z"
       id="path843"
       transform="matrix(0.26458333,0,0,0.26458333,5,0)" />
    <path
       style="fill:#ffffff;stroke-width:0"
       d="m 75.993628,94.484461 v -9.343434 h 9.090909 9.090909 v 9.343434 9.343439 h -9.090909 -9.090909 z"
       id="path845"
       transform="matrix(0.26458333,0,0,0.26458333,5,0)" />
    <path
       style="fill:#ffffff;stroke-width:0"
       d="m 56.801708,75.545067 v -9.090909 h 9.343435 9.343434 v 9.090909 9.090909 h -9.343434 -9.343435 z"
       id="path847"
       transform="matrix(0.26458333,0,0,0.26458333,5,0)" />
    <path
       style="fill:#ffffff;stroke-width:0"
       d="m 94.680496,75.545067 v -9.090909 h 9.343434 9.34344 v 9.090909 9.090909 h -9.34344 -9.343434 z"
       id="path849"
       transform="matrix(0.26458333,0,0,0.26458333,5,0)" />
  </g>
</svg>
