<?xml version="1.0" encoding="UTF-8" standalone="no"?>
<svg
   xmlns:dc="http://purl.org/dc/elements/1.1/"
   xmlns:cc="http://creativecommons.org/ns#"
   xmlns:rdf="http://www.w3.org/1999/02/22-rdf-syntax-ns#"
   xmlns:svg="http://www.w3.org/2000/svg"
   xmlns="http://www.w3.org/2000/svg"
   xmlns:sodipodi="http://sodipodi.sourceforge.net/DTD/sodipodi-0.dtd"
   xmlns:inkscape="http://www.inkscape.org/namespaces/inkscape"
   width="45mm"
   height="45mm"
   viewBox="0 0 45 45"
   version="1.1"
   id="svg899"
   sodipodi:docname="home_lit.svg"
   inkscape:version="1.0.2 (e86c870879, 2021-01-15)">
  <defs
     id="defs893" />
  <sodipodi:namedview
     id="base"
     pagecolor="#ffffff"
     bordercolor="#666666"
     borderopacity="1.0"
     inkscape:pageopacity="0.0"
     inkscape:pageshadow="2"
     inkscape:zoom="1.98"
     inkscape:cx="108.31686"
     inkscape:cy="95.242037"
     inkscape:document-units="mm"
     inkscape:current-layer="layer1"
     inkscape:document-rotation="0"
     showgrid="false"
     inkscape:window-width="1695"
     inkscape:window-height="996"
     inkscape:window-x="26"
     inkscape:window-y="23"
     inkscape:window-maximized="0"
     fit-margin-top="0"
     fit-margin-left="0"
     fit-margin-right="0"
     fit-margin-bottom="0" />
  <metadata
     id="metadata896">
    <rdf:RDF>
      <cc:Work
         rdf:about="">
        <dc:format>image/svg+xml</dc:format>
        <dc:type
           rdf:resource="http://purl.org/dc/dcmitype/StillImage" />
        <dc:title></dc:title>
      </cc:Work>
    </rdf:RDF>
  </metadata>
  <g
     inkscape:groupmode="layer"
     id="layer3"
     inkscape:label="bg">
    <circle
       style="fill:#909090;fill-opacity:0.50566006;stroke-width:0"
       id="path1815"
       cx="22.5"
       cy="22.5"
       r="21" />
  </g>
  <g
     inkscape:label="Layer 1"
     inkscape:groupmode="layer"
     id="layer1"
     transform="translate(-5)">
    <circle
       style="fill:#e8e5e0;fill-opacity:1;stroke-width:0"
       id="path1573"
       cx="27.5"
       cy="22.5"
       r="20" />
    <rect
       style="fill:#a8a5a0;fill-opacity:1;stroke-width:0"
       id="rect1577"
       width="5"
       height="5"
       x="25"
       y="17.5" />
    <rect
       style="fill:#a8a5a0;fill-opacity:1;stroke-width:0"
       id="rect1577-1"
       width="5"
       height="5"
       x="30"
       y="12.500001" />
    <rect
       style="fill:#a8a5a0;fill-opacity:1;stroke-width:0"
       id="rect1577-2"
       width="5"
       height="5"
       x="35"
       y="17.5" />
    <rect
       style="fill:#a8a5a0;fill-opacity:1;stroke-width:0"
       id="rect1577-7"
       width="5"
       height="5"
       x="30"
       y="22.5" />
    <rect
       style="fill:#a8a5a0;fill-opacity:1;stroke-width:0"
       id="rect1577-0"
       width="5"
       height="5"
       x="25"
       y="27.5" />
    <rect
       style="fill:#a8a5a0;fill-opacity:1;stroke-width:0"
       id="rect1577-9"
       width="5"
       height="5"
       x="20"
       y="22.5" />
    <rect
       style="fill:#a8a5a0;fill-opacity:1;stroke-width:0"
       id="rect1577-3"
       width="5"
       height="5"
       x="15"
       y="17.5" />
    <rect
       style="fill:#a8a5a0;fill-opacity:1;stroke-width:0"
       id="rect1577-6"
       width="5"
       height="5"
       x="20"
       y="12.5" />
    <path
       style="fill:#909090;fill-opacity:0.50566;stroke-width:0"
       d="M 75.993623,160.08404 C 59.316644,157.6449 44.957586,150.86583 33.499836,140.02224 28.966081,135.7315 24.089349,129.92223 21.093022,125.24297 16.80179,118.54149 12.986867,108.98416 10.984275,99.918052 9.5079814,93.234592 9.391587,78.106123 10.763868,71.270461 16.323117,43.578514 34.992392,22.274641 61.446517,13.435505 69.662325,10.690352 75.868861,9.715221 85.084532,9.7216521 c 9.121379,0.00637 15.323118,0.9812469 23.541558,3.7006119 35.87407,11.870223 57.22249,47.718778 50.66661,85.080071 -4.54963,25.927915 -23.64632,48.505075 -48.70312,57.579515 -8.09919,2.93317 -13.626765,3.87807 -23.737371,4.05775 -5.138889,0.0913 -10.025252,0.0663 -10.858586,-0.0556 z m 18.434344,-46.39651 v -9.3323 l 9.469693,-0.1374 9.4697,-0.13741 0.13741,-9.469696 0.1374,-9.469697 h 9.3323 9.33228 v -9.59596 -9.59596 h -9.34343 -9.34343 v -9.343434 -9.343434 h -9.59596 -9.595963 v 9.343434 9.343434 h -9.343435 -9.343434 v -9.343434 -9.343434 h -9.59596 -9.595959 v 9.343434 9.343434 H 47.205745 37.86231 v 9.59596 9.59596 h 9.332291 9.332289 l 0.137408,9.469697 0.137406,9.469696 9.217172,0.13766 9.217172,0.13765 v 9.33204 9.33204 h 9.595959 9.59596 z"
       id="path1863"
       transform="matrix(0.26458333,0,0,0.26458333,5,0)" />
    <path
       style="fill:#909090;fill-opacity:0.50566;stroke-width:0"
       d="m 75.741098,94.484461 v -9.343434 h 9.343434 9.343435 v 9.343434 9.343439 h -9.343435 -9.343434 z"
       id="path1865"
       transform="matrix(0.26458333,0,0,0.26458333,5,0)" />
    <path
       style="fill:#909090;fill-opacity:0.50566;stroke-width:0"
       d="m 57.054229,75.545067 v -9.090909 h 9.090909 9.09091 v 9.090909 9.090909 h -9.09091 -9.090909 z"
       id="path1867"
       transform="matrix(0.26458333,0,0,0.26458333,5,0)" />
    <path
       style="fill:#ffffff;fill-opacity:1;stroke-width:0"
       d="m 94.427967,75.545067 v -9.090909 h 9.343433 9.34344 v 9.090909 9.090909 h -9.34344 -9.343433 z"
       id="path1869"
       transform="matrix(0.26458333,0,0,0.26458333,5,0)" />
    <path
       style="fill:#ffffff;fill-opacity:1;stroke-width:0"
       d="m 75.460623,103.68465 c -0.136825,-0.35656 -0.18651,-4.731557 -0.110411,-9.722218 l 0.138361,-9.073931 9.469697,-0.137406 9.469697,-0.137407 v 9.859629 9.859633 h -9.359286 c -7.152255,0 -9.417948,-0.15288 -9.608058,-0.6483 z"
       id="path1871"
       transform="matrix(0.26458333,0,0,0.26458333,5,0)" />
    <path
       style="fill:#ffffff;fill-opacity:1;stroke-width:0"
       d="m 57.054229,75.545067 v -9.090909 h 9.090909 9.09091 v 9.090909 9.090909 h -9.09091 -9.090909 z"
       id="path1873"
       transform="matrix(0.26458333,0,0,0.26458333,5,0)" />
    <path
       style="fill:#ffffff;fill-opacity:1;stroke-width:0"
       d="M 69.690169,158.81106 C 59.517126,156.46877 49.232526,151.91241 41.268177,146.2193 33.05846,140.35081 22.765077,128.78753 18.593359,120.74709 16.331406,116.38747 13.5147,108.88141 11.71023,102.40468 10.396044,97.687713 10.348093,97.068193 10.354467,84.888501 10.359964,74.384143 10.511627,71.710542 11.256926,68.97941 15.743925,52.536893 21.435188,42.351538 32.005251,31.847221 42.431286,21.486034 53.629786,15.265433 68.560583,11.541275 c 4.982101,-1.242675 6.256838,-1.352108 16.018899,-1.375181 8.407172,-0.01987 11.496086,0.165061 14.89899,0.891993 31.120018,6.647896 54.329238,30.348351 59.613788,60.875551 2.70071,15.601121 0.24829,32.952982 -6.57558,46.525002 -5.2732,10.48787 -15.96278,22.69776 -25.35214,28.95781 -8.98348,5.98944 -19.68361,10.30833 -29.028896,11.71693 -7.477854,1.12713 -22.909682,0.95226 -28.445475,-0.32232 z m 24.737798,-45.40833 v -9.06978 h 9.332533 9.33252 l 0.13717,-9.722226 0.13717,-9.722223 9.4697,-0.137409 9.46969,-0.137404 v -9.068621 -9.068621 l -9.46969,-0.137404 -9.4697,-0.137409 -0.13741,-9.469697 -0.1374,-9.469697 h -9.3323 -9.332283 v 9.607103 9.607104 L 84.95827,66.339042 75.488573,66.201633 75.351164,56.731936 75.21376,47.262239 h -9.068622 -9.06862 l -0.137407,9.469697 -0.137407,9.469697 -9.469697,0.137409 -9.469697,0.137404 v 9.068621 9.068621 l 9.469697,0.137404 9.469697,0.137409 v 9.59596 9.595959 l 9.217172,0.13766 9.217172,0.13765 -5.05e-4,9.20578 -5.06e-4,9.20578 9.596521,-0.14738 9.59652,-0.14738 v -9.0698 z"
       id="path1875"
       transform="matrix(0.26458333,0,0,0.26458333,5,0)" />
  </g>
</svg>
