<svg height="7.392942mm" viewBox="0 0 29.110481 7.3929433" width="29.110479mm" xmlns="http://www.w3.org/2000/svg" xmlns:xlink="http://www.w3.org/1999/xlink"><filter id="a" color-interpolation-filters="sRGB" height="1.089885" width="1.021393" x="-.010696" y="-.044942"><feGaussianBlur stdDeviation=".12702242"/></filter><g transform="translate(45.52009 -38.741524)"><path d="m-18.576044 39.114249s-13.501443-.152705-17.631483 0-7.146125 1.058333-7.146125 1.058333c-1.0285.07616-1.861581.830266-1.861581 1.861581v1.929392c0 1.031316.833081 1.937741 1.861581 1.861581 0 0 4.759192-1.142495 7.146125-1.23075 5.873148-.217154 17.631483 0 17.631483 0 1.031316 0 1.861581-.830265 1.861581-1.861581v-1.756975c0-1.031315-.830265-1.861581-1.861581-1.861581z" fill="#fff" filter="url(#a)"/><text fill="#78787f" font-family="sans-serif" font-size="4.55951" opacity=".6" stroke-width=".113988" transform="translate(-133.79261 22.092247)" x="101.08566" y="21.454077"><tspan fill="#78787f" font-family="sans-serif" font-size="4.55951" stroke-width=".113988" x="101.08566" y="21.454077">L</tspan></text></g></svg>