<svg height="3.865246mm" viewBox="0 0 10.523298 3.8652465" width="10.523297mm" xmlns="http://www.w3.org/2000/svg" xmlns:xlink="http://www.w3.org/1999/xlink"><filter id="a" color-interpolation-filters="sRGB" height="1.060312" width="1.021537" x="-.010769" y="-.030156"><feGaussianBlur stdDeviation=".17635872"/></filter><g transform="translate(-55.789932 -86.507648)"><path d="m64.325725 86.607941-6.588462.0253c-.01134-.000435-.02209 0-.03261 0-1.004495.0078-1.814671.82027-1.814722 1.819817.00021.999467.810306 1.811795 1.814722 1.819614.01232.000434.02512 0 .03649 0l6.655121-.0253c1.005378-.0066 1.81691-.821605 1.816964-1.82145.000037-1.004577-.787591-1.775092-1.796858-1.817529-.03208-.000947-.06365-.000513-.09064-.000434z" stroke="#000" stroke-linecap="square" stroke-width=".2"/><rect fill="#fff" filter="url(#a)" height="11.989229" ry="5.715416" transform="matrix(.26458333 0 0 .26458333 -13.360759 48.278444)" width="37.381668" x="262.44516" y="145.79816"/></g></svg>