<svg height="14.347563mm" viewBox="0 0 24.207687 14.347563" width="24.207687mm" xmlns="http://www.w3.org/2000/svg" xmlns:xlink="http://www.w3.org/1999/xlink"><filter id="a" color-interpolation-filters="sRGB" height="1.046993" width="1.027329" x="-.013665" y="-.023497"><feGaussianBlur stdDeviation=".13416225"/></filter><g transform="translate(-91.56634 -9.25116)"><path d="m93.619385 16.898192c.959337-1.936251 2.100526-3.940383 3.83919-5.223521 1.716451-1.266746 3.911665-2.1015246 6.044935-2.1015246 2.13328 0 4.32849.8347766 6.04495 2.1015246 1.73866 1.283138 2.89833 3.278223 3.83919 5.223521.9598 1.984458 2.8061 6.378538 1.74579 6.378538 0 0-6.94831-1.048488-11.54129-1.048488-4.592984 0-11.541286 0-11.541286 0-.636596 0 .746306-3.670554 1.568521-5.33005z" fill="#fff" filter="url(#a)"/><text fill="#78787f" font-family="sans-serif" font-size="4.55951" opacity=".6" stroke-width=".113988" transform="translate(-.97997 -.670862)" x="101.08566" y="21.454077"><tspan fill="#78787f" font-family="sans-serif" font-size="4.55951" stroke-width=".113988" x="101.08566" y="21.454077">R2</tspan></text></g></svg>